<svg xmlns="http://www.w3.org/2000/svg" version="1.1" xmlns:xlink="http://www.w3.org/1999/xlink" xmlns:svgjs="http://svgjs.dev/svgjs" width="1500" height="1500" viewBox="0 0 1500 1500"><rect width="1500" height="1500" fill="#000000"></rect><g transform="matrix(0.6666666666666666,0,0,0.6666666666666666,249.6506282675341,225.09203778677465)"><svg viewBox="0 0 235 247" data-background-color="#ffffff" preserveAspectRatio="xMidYMid meet" height="1576" width="1500" xmlns="http://www.w3.org/2000/svg" xmlns:xlink="http://www.w3.org/1999/xlink"><g id="tight-bounds" transform="matrix(1,0,0,1,0.08210235712948588,-0.09999999999999432)"><svg viewBox="0 0 234.83579528574106 247.2" height="247.2" width="234.83579528574106"><g><svg viewBox="0 0 395.52 416.3442965798009" height="247.2" width="234.83579528574106"><g transform="matrix(1,0,0,1,0,251.45752958361132)"><svg viewBox="0 0 395.52 164.88676699618964" height="164.88676699618964" width="395.52"><g id="textblocktransform"><svg viewBox="0 0 395.52 164.88676699618964" height="164.88676699618964" width="395.52" id="textblock"><g><svg viewBox="0 0 395.52 99.90010672358589" height="99.90010672358589" width="395.52"><g transform="matrix(1,0,0,1,0,0)"><svg width="395.52" viewBox="2.25 -34.9 140.54 35.5" height="99.90010672358589" data-palette-color="url(#a4fa1e31-e1ce-4b97-9f3d-cb21f1a468d4)"><g class="wordmark-text-0" data-fill-palette-color="primary" id="text-0"></g></svg></g></svg></g><g transform="matrix(1,0,0,1,0,123.48412431846316)"><svg viewBox="0 0 395.52 41.4026426777265" height="41.4026426777265" width="395.52"><g transform="matrix(1,0,0,1,0,0)"><svg width="395.52" viewBox="0.24 -43.36 415.78999999999996 43.75" height="41.4026426777265" data-palette-color="#2ecc40"><g class="slogan-text-1" data-fill-palette-color="secondary" id="text-1"><path d="M118.23 0.39L118.23 0.39Q112.34 0.39 109.74-2.54 107.14-5.47 107.14-11.87L107.14-11.87 107.14-16.06 115.64-16.06 115.64-10.69Q115.64-9.2 116.09-8.36 116.54-7.52 117.66-7.52L117.66-7.52Q118.84-7.52 119.29-8.2 119.74-8.89 119.74-10.45L119.74-10.45Q119.74-12.43 119.35-13.76 118.96-15.09 117.99-16.3 117.03-17.5 115.32-19.12L115.32-19.12 111.46-22.78Q107.14-26.86 107.14-32.1L107.14-32.1Q107.14-37.6 109.69-40.48 112.24-43.36 117.08-43.36L117.08-43.36Q122.99-43.36 125.46-40.21 127.94-37.06 127.94-30.64L127.94-30.64 119.2-30.64 119.2-33.59Q119.2-34.47 118.7-34.96 118.2-35.45 117.35-35.45L117.35-35.45Q116.32-35.45 115.85-34.88 115.37-34.3 115.37-33.4L115.37-33.4Q115.37-32.5 115.86-31.45 116.35-30.4 117.79-29.03L117.79-29.03 122.74-24.27Q124.23-22.85 125.48-21.28 126.72-19.7 127.48-17.61 128.24-15.53 128.24-12.52L128.24-12.52Q128.24-6.47 126-3.04 123.77 0.39 118.23 0.39ZM141.1 0.39L141.1 0.39Q136.44 0.39 133.59-2.51 130.75-5.42 130.75-10.64L130.75-10.64 130.75-30.47Q130.75-36.72 133.23-40.04 135.7-43.36 141.29-43.36L141.29-43.36Q144.35-43.36 146.73-42.24 149.11-41.11 150.47-38.88 151.84-36.65 151.84-33.25L151.84-33.25 151.84-25.83 143.3-25.83 143.3-32.18Q143.3-34.11 142.81-34.78 142.32-35.45 141.29-35.45L141.29-35.45Q140.1-35.45 139.68-34.58 139.27-33.72 139.27-32.28L139.27-32.28 139.27-10.77Q139.27-8.98 139.79-8.25 140.32-7.52 141.29-7.52L141.29-7.52Q142.39-7.52 142.84-8.42 143.3-9.33 143.3-10.77L143.3-10.77 143.3-18.51 151.94-18.51 151.94-10.38Q151.94-4.71 149.08-2.16 146.23 0.39 141.1 0.39ZM165.05 0.39L165.05 0.39Q159.9 0.39 157.17-2.72 154.45-5.83 154.45-11.72L154.45-11.72 154.45-32.13Q154.45-37.65 157.15-40.5 159.85-43.36 165.05-43.36L165.05-43.36Q170.25-43.36 172.94-40.5 175.64-37.65 175.64-32.13L175.64-32.13 175.64-11.72Q175.64-5.83 172.92-2.72 170.2 0.39 165.05 0.39ZM165.12-7.52L165.12-7.52Q167.07-7.52 167.07-11.3L167.07-11.3 167.07-32.28Q167.07-35.45 165.17-35.45L165.17-35.45Q163.02-35.45 163.02-32.2L163.02-32.2 163.02-11.25Q163.02-9.25 163.51-8.39 164-7.52 165.12-7.52ZM187.8 0L179.11 0 179.11-42.97 192.29-42.97Q195.59-42.97 197.27-41.47 198.96-39.97 199.53-37.27 200.1-34.57 200.1-30.93L200.1-30.93Q200.1-27.42 199.21-25.32 198.32-23.22 195.85-22.41L195.85-22.41Q197.88-22 198.7-20.4 199.52-18.8 199.52-16.26L199.52-16.26 199.52 0 191.05 0 191.05-16.82Q191.05-18.7 190.28-19.15 189.51-19.6 187.8-19.6L187.8-19.6 187.8 0ZM187.85-35.01L187.85-27.05 189.92-27.05Q191.7-27.05 191.7-30.93L191.7-30.93Q191.7-33.45 191.31-34.23 190.92-35.01 189.85-35.01L189.85-35.01 187.85-35.01ZM210.84 0L202.54 0 202.54-42.97 210.84-42.97 210.84 0ZM222.66 0L214.26 0 214.26-42.97 223.1-42.97 227.05-22.39 227.05-42.97 235.35-42.97 235.35 0 226.95 0 222.66-21.48 222.66 0ZM248.02 0.39L248.02 0.39Q238.82 0.39 238.82-12.79L238.82-12.79 238.82-31.32Q238.82-43.36 249.36-43.36L249.36-43.36Q253.71-43.36 256.03-41.61 258.35-39.87 259.23-36.52 260.11-33.18 260.11-28.37L260.11-28.37 251.71-28.37 251.71-32.18Q251.71-33.57 251.33-34.51 250.95-35.45 249.75-35.45L249.75-35.45Q248.26-35.45 247.79-34.45 247.31-33.45 247.31-32.25L247.31-32.25 247.31-11.43Q247.31-9.69 247.76-8.61 248.22-7.52 249.53-7.52L249.53-7.52Q250.9-7.52 251.35-8.61 251.8-9.69 251.8-11.47L251.8-11.47 251.8-17.6 249.51-17.6 249.51-25.02 260.01-25.02 260.01 0 256.57 0 255.1-3.61Q252.85 0.39 248.02 0.39Z" fill="#ffffff" data-fill-palette-color="secondary"></path></g></svg></g></svg></g></svg></g></svg></g><g transform="matrix(1,0,0,1,85.40438180718206,0)"><svg viewBox="0 0 224.71123638563586 227.87351198873407" height="227.87351198873407" width="224.71123638563586"><g><svg xmlns="http://www.w3.org/2000/svg" xmlns:xlink="http://www.w3.org/1999/xlink" version="1.1" x="0" y="0" viewBox="5.611392405413278 5.03 88.77569349357734 90.02500000000003" enable-background="new 0 0 100 100" xml:space="preserve" height="227.87351198873407" width="224.71123638563586" class="icon-icon-0" data-fill-palette-color="accent" id="icon-0"></svg></g></svg></g><g></g></svg></g><defs></defs><mask id="7a77b1d0-6c17-4697-9f36-662ec77f326a"><g id="SvgjsG1094"><svg viewBox="0 0 234.83579528574106 247.2" height="247.2" width="234.83579528574106"><g><svg viewBox="0 0 395.52 416.3442965798009" height="247.2" width="234.83579528574106"><g transform="matrix(1,0,0,1,0,251.45752958361132)"><svg viewBox="0 0 395.52 164.88676699618964" height="164.88676699618964" width="395.52"><g id="SvgjsG1093"><svg viewBox="0 0 395.52 164.88676699618964" height="164.88676699618964" width="395.52" id="SvgjsSvg1092"><g><svg viewBox="0 0 395.52 99.90010672358589" height="99.90010672358589" width="395.52"><g transform="matrix(1,0,0,1,0,0)"><svg width="395.52" viewBox="2.25 -34.9 140.54 35.5" height="99.90010672358589" data-palette-color="url(#a4fa1e31-e1ce-4b97-9f3d-cb21f1a468d4)"><g class="wordmark-text-0" data-fill-palette-color="primary" id="SvgjsG1091"><path d="M14.2 0.6L14.2 0.6Q8.55 0.6 5.4-2.63 2.25-5.85 2.25-12.5L2.25-12.5Q2.25-15.65 2.78-18.85 3.3-22.05 4.4-24.93 5.5-27.8 7.33-30.05 9.15-32.3 11.7-33.6 14.25-34.9 17.65-34.9L17.65-34.9Q23.05-34.9 26.25-31.75 29.45-28.6 29.45-22.2L29.45-22.2 29.45-21.55 22.95-21.55 22.95-22.45Q22.95-25.8 21.55-27.6 20.15-29.4 17.65-29.4L17.65-29.4Q15.85-29.4 14.45-28.63 13.05-27.85 12.08-26.53 11.1-25.2 10.45-23.48 9.8-21.75 9.4-19.9 9-18.05 8.85-16.2 8.7-14.35 8.7-12.75L8.7-12.75Q8.7-9.05 10.08-6.98 11.45-4.9 14.35-4.9L14.35-4.9Q16.6-4.9 18.15-5.98 19.7-7.05 20.65-8.83 21.6-10.6 22.05-12.7L22.05-12.7 28.3-12.7Q27.55-9.15 25.78-6.1 24-3.05 21.15-1.23 18.3 0.6 14.2 0.6ZM43.05 0.6L43.05 0.6Q37.75 0.6 34.8-2.63 31.85-5.85 31.85-12.5L31.85-12.5Q31.85-15.5 32.4-18.65 32.95-21.8 34.12-24.7 35.3-27.6 37.17-29.9 39.05-32.2 41.72-33.55 44.4-34.9 47.95-34.9L47.95-34.9Q53.6-34.9 56.92-31.8 60.25-28.7 60.25-22.35L60.25-22.35 53.75-22.35 53.75-22.8Q53.75-26.05 52.25-27.73 50.75-29.4 48.2-29.4L48.2-29.4Q45.8-29.4 44.07-28.3 42.35-27.2 41.22-25.38 40.1-23.55 39.47-21.35 38.85-19.15 38.57-16.9 38.3-14.65 38.3-12.75L38.3-12.75Q38.3-9.05 39.77-6.98 41.25-4.9 44.45-4.9L44.45-4.9Q46.85-4.9 48.5-5.93 50.15-6.95 51.15-8.83 52.15-10.7 52.55-13.15L52.55-13.15 52.95-15.4 55.3-13.15 44.9-13.15 45.7-18.65 59.8-18.65 57.2 0 53.1 0 52.5-3.8Q50.8-1.8 48.45-0.6 46.1 0.6 43.05 0.6ZM76.75 0L70.45 0 72.25-12.95 64.84-34.3 71.34-34.3 76.3-19.25 76.5-19.25 85.45-34.3 91.9-34.3 78.59-12.95 76.75 0ZM101.79 0.6L101.79 0.6Q99.89 0.6 97.89 0.1 95.89-0.4 94.19-1.48 92.49-2.55 91.44-4.3 90.39-6.05 90.39-8.6L90.39-8.6Q90.39-9.45 90.49-10.38 90.59-11.3 90.64-11.65L90.64-11.65 97.24-11.65Q97.19-11.35 97.09-10.78 96.99-10.2 96.99-9.25L96.99-9.25Q96.99-8.4 97.37-7.38 97.74-6.35 98.87-5.63 99.99-4.9 102.19-4.9L102.19-4.9Q103.54-4.9 104.54-5.28 105.54-5.65 106.24-6.28 106.94-6.9 107.29-7.7 107.64-8.5 107.64-9.35L107.64-9.35Q107.64-11.1 106.59-12.25 105.54-13.4 103.89-14.2 102.24-15 100.39-15.83 98.54-16.65 96.89-17.7 95.24-18.75 94.19-20.4 93.14-22.05 93.14-24.55L93.14-24.55Q93.14-27.05 94.27-29.43 95.39-31.8 97.94-33.35 100.49-34.9 104.74-34.9L104.74-34.9Q109.09-34.9 111.39-33.43 113.69-31.95 114.57-29.53 115.44-27.1 115.44-24.2L115.44-24.2 108.99-24.2Q108.99-25.65 108.52-26.83 108.04-28 107.04-28.68 106.04-29.35 104.39-29.35L104.39-29.35Q103.99-29.35 103.24-29.25 102.49-29.15 101.72-28.8 100.94-28.45 100.39-27.73 99.84-27 99.84-25.8L99.84-25.8Q99.84-24.25 100.89-23.28 101.94-22.3 103.59-21.58 105.24-20.85 107.07-20.08 108.89-19.3 110.54-18.15 112.19-17 113.24-15.23 114.29-13.45 114.29-10.65L114.29-10.65Q114.29-7.95 113.34-5.85 112.39-3.75 110.69-2.33 108.99-0.9 106.72-0.15 104.44 0.6 101.79 0.6ZM129.14 0.6L129.14 0.6Q127.24 0.6 125.24 0.1 123.24-0.4 121.54-1.48 119.84-2.55 118.79-4.3 117.74-6.05 117.74-8.6L117.74-8.6Q117.74-9.45 117.84-10.38 117.94-11.3 117.99-11.65L117.99-11.65 124.59-11.65Q124.54-11.35 124.44-10.78 124.34-10.2 124.34-9.25L124.34-9.25Q124.34-8.4 124.72-7.38 125.09-6.35 126.22-5.63 127.34-4.9 129.54-4.9L129.54-4.9Q130.89-4.9 131.89-5.28 132.89-5.65 133.59-6.28 134.29-6.9 134.64-7.7 134.99-8.5 134.99-9.35L134.99-9.35Q134.99-11.1 133.94-12.25 132.89-13.4 131.24-14.2 129.59-15 127.74-15.83 125.89-16.65 124.24-17.7 122.59-18.75 121.54-20.4 120.49-22.05 120.49-24.55L120.49-24.55Q120.49-27.05 121.61-29.43 122.74-31.8 125.29-33.35 127.84-34.9 132.09-34.9L132.09-34.9Q136.44-34.9 138.74-33.43 141.04-31.95 141.91-29.53 142.79-27.1 142.79-24.2L142.79-24.2 136.34-24.2Q136.34-25.65 135.87-26.83 135.39-28 134.39-28.68 133.39-29.35 131.74-29.35L131.74-29.35Q131.34-29.35 130.59-29.25 129.84-29.15 129.06-28.8 128.29-28.45 127.74-27.73 127.19-27 127.19-25.8L127.19-25.8Q127.19-24.25 128.24-23.28 129.29-22.3 130.94-21.58 132.59-20.85 134.41-20.08 136.24-19.3 137.89-18.15 139.54-17 140.59-15.23 141.64-13.45 141.64-10.65L141.64-10.65Q141.64-7.95 140.69-5.85 139.74-3.75 138.04-2.33 136.34-0.9 134.06-0.15 131.79 0.6 129.14 0.6Z" fill="white"></path></g></svg></g></svg></g><g transform="matrix(1,0,0,1,0,123.48412431846316)"><svg viewBox="0 0 395.52 41.4026426777265" height="41.4026426777265" width="395.52"><g transform="matrix(1,0,0,1,0,0)"><svg width="395.52" viewBox="0.24 -43.36 415.78999999999996 43.75" height="41.4026426777265" data-palette-color="#2ecc40"><g class="slogan-text-1" data-fill-palette-color="secondary" id="SvgjsG1090"><path d="M15.21 0L7.1 0 7.1-14.14 0.24-42.97 8.76-42.97 11.16-28.42 13.55-42.97 22.05-42.97 15.21-14.14 15.21 0ZM34.47 0.39L34.47 0.39Q29.32 0.39 26.6-2.72 23.87-5.83 23.87-11.72L23.87-11.72 23.87-32.13Q23.87-37.65 26.57-40.5 29.27-43.36 34.47-43.36L34.47-43.36Q39.67-43.36 42.37-40.5 45.07-37.65 45.07-32.13L45.07-32.13 45.07-11.72Q45.07-5.83 42.34-2.72 39.62 0.39 34.47 0.39ZM34.54-7.52L34.54-7.52Q36.5-7.52 36.5-11.3L36.5-11.3 36.5-32.28Q36.5-35.45 34.59-35.45L34.59-35.45Q32.44-35.45 32.44-32.2L32.44-32.2 32.44-11.25Q32.44-9.25 32.93-8.39 33.42-7.52 34.54-7.52ZM57.39 0.39L57.39 0.39Q48.19 0.39 48.19-12.79L48.19-12.79 48.19-31.32Q48.19-43.36 58.74-43.36L58.74-43.36Q63.08-43.36 65.4-41.61 67.72-39.87 68.6-36.52 69.48-33.18 69.48-28.37L69.48-28.37 61.08-28.37 61.08-32.18Q61.08-33.57 60.7-34.51 60.32-35.45 59.13-35.45L59.13-35.45Q57.64-35.45 57.16-34.45 56.68-33.45 56.68-32.25L56.68-32.25 56.68-11.43Q56.68-9.69 57.14-8.61 57.59-7.52 58.91-7.52L58.91-7.52Q60.27-7.52 60.72-8.61 61.18-9.69 61.18-11.47L61.18-11.47 61.18-17.6 58.88-17.6 58.88-25.02 69.38-25.02 69.38 0 65.94 0 64.47-3.61Q62.23 0.39 57.39 0.39ZM79.95 0L71.6 0 75.75-42.97 90.32-42.97 94.4 0 86.27 0 85.66-6.93 80.49-6.93 79.95 0ZM82.73-35.64L81.1-13.79 85-13.79 83.12-35.64 82.73-35.64Z" fill="white"></path><path d="M118.23 0.39L118.23 0.39Q112.34 0.39 109.74-2.54 107.14-5.47 107.14-11.87L107.14-11.87 107.14-16.06 115.64-16.06 115.64-10.69Q115.64-9.2 116.09-8.36 116.54-7.52 117.66-7.52L117.66-7.52Q118.84-7.52 119.29-8.2 119.74-8.89 119.74-10.45L119.74-10.45Q119.74-12.43 119.35-13.76 118.96-15.09 117.99-16.3 117.03-17.5 115.32-19.12L115.32-19.12 111.46-22.78Q107.14-26.86 107.14-32.1L107.14-32.1Q107.14-37.6 109.69-40.48 112.24-43.36 117.08-43.36L117.08-43.36Q122.99-43.36 125.46-40.21 127.94-37.06 127.94-30.64L127.94-30.64 119.2-30.64 119.2-33.59Q119.2-34.47 118.7-34.96 118.2-35.45 117.35-35.45L117.35-35.45Q116.32-35.45 115.85-34.88 115.37-34.3 115.37-33.4L115.37-33.4Q115.37-32.5 115.86-31.45 116.35-30.4 117.79-29.03L117.79-29.03 122.74-24.27Q124.23-22.85 125.48-21.28 126.72-19.7 127.48-17.61 128.24-15.53 128.24-12.52L128.24-12.52Q128.24-6.47 126-3.04 123.77 0.39 118.23 0.39ZM141.1 0.39L141.1 0.39Q136.44 0.39 133.59-2.51 130.75-5.42 130.75-10.64L130.75-10.64 130.75-30.47Q130.75-36.72 133.23-40.04 135.7-43.36 141.29-43.36L141.29-43.36Q144.35-43.36 146.73-42.24 149.11-41.11 150.47-38.88 151.84-36.65 151.84-33.25L151.84-33.25 151.84-25.83 143.3-25.83 143.3-32.18Q143.3-34.11 142.81-34.78 142.32-35.45 141.29-35.45L141.29-35.45Q140.1-35.45 139.68-34.58 139.27-33.72 139.27-32.28L139.27-32.28 139.27-10.77Q139.27-8.98 139.79-8.25 140.32-7.52 141.29-7.52L141.29-7.52Q142.39-7.52 142.84-8.42 143.3-9.33 143.3-10.77L143.3-10.77 143.3-18.51 151.94-18.51 151.94-10.38Q151.94-4.71 149.08-2.16 146.23 0.39 141.1 0.39ZM165.05 0.39L165.05 0.39Q159.9 0.39 157.17-2.72 154.45-5.83 154.45-11.72L154.45-11.72 154.45-32.13Q154.45-37.65 157.15-40.5 159.85-43.36 165.05-43.36L165.05-43.36Q170.25-43.36 172.94-40.5 175.64-37.65 175.64-32.13L175.64-32.13 175.64-11.72Q175.64-5.83 172.92-2.72 170.2 0.39 165.05 0.39ZM165.12-7.52L165.12-7.52Q167.07-7.52 167.07-11.3L167.07-11.3 167.07-32.28Q167.07-35.45 165.17-35.45L165.17-35.45Q163.02-35.45 163.02-32.2L163.02-32.2 163.02-11.25Q163.02-9.25 163.51-8.39 164-7.52 165.12-7.52ZM187.8 0L179.11 0 179.11-42.97 192.29-42.97Q195.59-42.97 197.27-41.47 198.96-39.97 199.53-37.27 200.1-34.57 200.1-30.93L200.1-30.93Q200.1-27.42 199.21-25.32 198.32-23.22 195.85-22.41L195.85-22.41Q197.88-22 198.7-20.4 199.52-18.8 199.52-16.26L199.52-16.26 199.52 0 191.05 0 191.05-16.82Q191.05-18.7 190.28-19.15 189.51-19.6 187.8-19.6L187.8-19.6 187.8 0ZM187.85-35.01L187.85-27.05 189.92-27.05Q191.7-27.05 191.7-30.93L191.7-30.93Q191.7-33.45 191.31-34.23 190.92-35.01 189.85-35.01L189.85-35.01 187.85-35.01ZM210.84 0L202.54 0 202.54-42.97 210.84-42.97 210.84 0ZM222.66 0L214.26 0 214.26-42.97 223.1-42.97 227.05-22.39 227.05-42.97 235.35-42.97 235.35 0 226.95 0 222.66-21.48 222.66 0ZM248.02 0.39L248.02 0.39Q238.82 0.39 238.82-12.79L238.82-12.79 238.82-31.32Q238.82-43.36 249.36-43.36L249.36-43.36Q253.71-43.36 256.03-41.61 258.35-39.87 259.23-36.52 260.11-33.18 260.11-28.37L260.11-28.37 251.71-28.37 251.71-32.18Q251.71-33.57 251.33-34.51 250.95-35.45 249.75-35.45L249.75-35.45Q248.26-35.45 247.79-34.45 247.31-33.45 247.31-32.25L247.31-32.25 247.31-11.43Q247.31-9.69 247.76-8.61 248.22-7.52 249.53-7.52L249.53-7.52Q250.9-7.52 251.35-8.61 251.8-9.69 251.8-11.47L251.8-11.47 251.8-17.6 249.51-17.6 249.51-25.02 260.01-25.02 260.01 0 256.57 0 255.1-3.61Q252.85 0.39 248.02 0.39Z" fill="black"></path><path d="M283.94 0.39L283.94 0.39Q278.05 0.39 275.45-2.54 272.85-5.47 272.85-11.87L272.85-11.87 272.85-16.06 281.35-16.06 281.35-10.69Q281.35-9.2 281.8-8.36 282.25-7.52 283.37-7.52L283.37-7.52Q284.55-7.52 285-8.2 285.45-8.89 285.45-10.45L285.45-10.45Q285.45-12.43 285.06-13.76 284.67-15.09 283.7-16.3 282.74-17.5 281.03-19.12L281.03-19.12 277.17-22.78Q272.85-26.86 272.85-32.1L272.85-32.1Q272.85-37.6 275.4-40.48 277.95-43.36 282.79-43.36L282.79-43.36Q288.7-43.36 291.17-40.21 293.65-37.06 293.65-30.64L293.65-30.64 284.91-30.64 284.91-33.59Q284.91-34.47 284.41-34.96 283.91-35.45 283.06-35.45L283.06-35.45Q282.03-35.45 281.56-34.88 281.08-34.3 281.08-33.4L281.08-33.4Q281.08-32.5 281.57-31.45 282.06-30.4 283.5-29.03L283.5-29.03 288.45-24.27Q289.94-22.85 291.19-21.28 292.43-19.7 293.19-17.61 293.95-15.53 293.95-12.52L293.95-12.52Q293.95-6.47 291.71-3.04 289.48 0.39 283.94 0.39ZM310.11 0L302 0 302-14.14 295.14-42.97 303.66-42.97 306.05-28.42 308.44-42.97 316.94-42.97 310.11-14.14 310.11 0ZM329.32 0.39L329.32 0.39Q323.43 0.39 320.83-2.54 318.23-5.47 318.23-11.87L318.23-11.87 318.23-16.06 326.73-16.06 326.73-10.69Q326.73-9.2 327.18-8.36 327.63-7.52 328.75-7.52L328.75-7.52Q329.93-7.52 330.38-8.2 330.83-8.89 330.83-10.45L330.83-10.45Q330.83-12.43 330.44-13.76 330.05-15.09 329.08-16.3 328.12-17.5 326.41-19.12L326.41-19.12 322.55-22.78Q318.23-26.86 318.23-32.1L318.23-32.1Q318.23-37.6 320.78-40.48 323.33-43.36 328.17-43.36L328.17-43.36Q334.08-43.36 336.56-40.21 339.03-37.06 339.03-30.64L339.03-30.64 330.29-30.64 330.29-33.59Q330.29-34.47 329.79-34.96 329.29-35.45 328.44-35.45L328.44-35.45Q327.41-35.45 326.94-34.88 326.46-34.3 326.46-33.4L326.46-33.4Q326.46-32.5 326.95-31.45 327.44-30.4 328.88-29.03L328.88-29.03 333.83-24.27Q335.32-22.85 336.57-21.28 337.81-19.7 338.57-17.61 339.33-15.53 339.33-12.52L339.33-12.52Q339.33-6.47 337.09-3.04 334.86 0.39 329.32 0.39ZM354.46 0L345.87 0 345.87-34.72 340.76-34.72 340.76-42.97 359.56-42.97 359.56-34.72 354.46-34.72 354.46 0ZM379.7 0L361.95 0 361.95-42.97 379.14-42.97 379.14-34.67 370.69-34.67 370.69-26.29 378.8-26.29 378.8-18.21 370.69-18.21 370.69-8.37 379.7-8.37 379.7 0ZM390.3 0L382.53 0 382.53-42.97 395.62-42.97 399.23-16.77 402.82-42.97 416.03-42.97 416.03 0 408.17 0 408.17-30.96 403.23 0 395.52 0 390.3-30.96 390.3 0Z" fill="black"></path></g></svg></g></svg></g></svg></g></svg></g><g transform="matrix(1,0,0,1,85.40438180718206,0)"><svg viewBox="0 0 224.71123638563586 227.87351198873407" height="227.87351198873407" width="224.71123638563586"><g><svg xmlns="http://www.w3.org/2000/svg" xmlns:xlink="http://www.w3.org/1999/xlink" version="1.1" x="0" y="0" viewBox="5.611392405413278 5.03 88.77569349357734 90.02500000000003" enable-background="new 0 0 100 100" xml:space="preserve" height="227.87351198873407" width="224.71123638563586" class="icon-icon-0" data-fill-palette-color="accent" id="SvgjsSvg1089"><g fill="black"><path d="M50.489 5.03c-5.545 0-10.058 4.511-10.058 10.057s4.512 10.059 10.058 10.059c5.547 0 10.058-4.513 10.058-10.059S56.036 5.03 50.489 5.03z" fill="black"></path><path d="M65.216 59.285c0.839 3.503 9.153 5.193 16.49 6.686 2.944 0.6 5.488 1.117 7.024 1.665 0.615 0.22 1.217 0.331 1.793 0.331 2.335 0 3.73-1.803 3.855-3.499 0.104-1.421-0.668-3.213-3.186-3.587-4.896-0.725-12.808-3.803-16.849-6.111-3.688-2.109-4.627-11.376-4.827-14.167-0.033-0.471-0.035-0.954-0.037-1.463-0.011-2.25-0.024-4.801-2.894-7.191-1.487-1.24-3.103-1.679-4.665-2.103-2.076-0.565-4.223-1.147-6.295-3.634-0.097-0.117-0.257-0.163-0.399-0.117-1.506 0.483-3.062 0.729-4.628 0.729-2.354 0-4.023-0.562-4.376-0.692-0.022-0.014-0.044-0.026-0.068-0.038-0.151-0.062-0.325-0.019-0.428 0.107-2.072 2.486-4.219 3.069-6.295 3.633-1.562 0.424-3.177 0.864-4.665 2.103-2.87 2.39-2.883 4.941-2.894 7.192-0.002 0.51-0.004 0.992-0.039 1.463-0.175 2.439-2.068 12.23-5.808 14.367-4.041 2.308-11.953 5.386-16.848 6.111-2.627 0.389-3.685 2.447-3.555 4.195 0.112 1.536 1.206 3.188 3.337 3.188 0.536 0 1.11-0.107 1.705-0.32 1.519-0.542 4.125-1.085 7.143-1.712 7.353-1.529 16.503-3.433 17.347-6.948 0.896-3.727 3.281-9.283 4.155-11.256 0.87 1.929 2.955 7.515 0.76 12.781l-0.46 1.11c-1.72 4.155-2.133 5.034-3.539 5.034-0.596 0-1.37-0.156-2.48-0.396-1.437-0.311-4.317-0.51-7.341-0.51-4.071 0-13.897 0.375-17.204 3.861-0.78 0.823-1.149 1.77-1.093 2.815 0.407 7.73 6.43 9.31 8.022 9.31 0.725 0 2.091 0.944 3.411 1.856 1.593 1.103 3.098 2.143 4.194 2.143 0.209 0 0.4-0.038 0.569-0.113 0.226-0.101 0.49-0.175 0.789-0.221-1.099 0.328-2.168 0.904-2.774 1.909-0.81 1.344-0.618 3.168 0.57 5.421 0.639 1.213 1.602 1.827 2.861 1.827 1.671 0 3.526-1.062 5.164-1.999 1.039-0.594 2.021-1.155 2.524-1.155 0.044 0 0.081 0.006 0.111 0.015 0.889 0.296 4.378 0.4 7.096 0.4 3.865 0 8.759-0.197 10.077-0.754l0.621 0.008c1.67 0.72 8.473 0.757 9.842 0.757 2.641 0 6.04-0.105 6.928-0.401 0.03-0.009 0.068-0.015 0.112-0.015 0.503 0 1.484 0.562 2.524 1.157 1.637 0.936 3.491 1.998 5.163 1.998l0 0c1.259 0 2.222-0.615 2.86-1.828 1.189-2.253 1.38-4.077 0.569-5.421-0.604-1.004-1.674-1.58-2.772-1.909 0.299 0.047 0.562 0.121 0.789 0.221 0.169 0.076 0.36 0.113 0.568 0.113 1.097 0 2.602-1.04 4.192-2.141 1.323-0.914 2.688-1.858 3.412-1.858 1.593 0 7.616-1.579 8.024-9.308 0.055-1.048-0.314-1.994-1.094-2.817C89 66.626 79.175 66.249 75.104 66.249c-3.023 0-5.904 0.2-7.341 0.51-1.112 0.239-1.886 0.396-2.481 0.396-1.406 0-1.819-0.88-3.539-5.037l-0.46-1.108c-2.152-5.166-0.188-10.638 0.71-12.666C62.665 50.404 64.341 55.646 65.216 59.285z" fill="black"></path></g></svg></g></svg></g><g></g></svg></g><defs><mask></mask></defs></svg><rect width="234.83579528574106" height="247.2" fill="black" stroke="none" visibility="hidden"></rect></g></mask><linearGradient x1="0.054" x2="0.941" y1="0.5" y2="0.5" id="a4fa1e31-e1ce-4b97-9f3d-cb21f1a468d4"><stop stop-color="#0f3054" offset="0"></stop><stop stop-color="#3b8dcb" offset="0.498"></stop><stop stop-color="#0f3054" offset="1"></stop></linearGradient><rect width="234.83579528574106" height="247.2" fill="#ffffff" mask="url(#7a77b1d0-6c17-4697-9f36-662ec77f326a)" data-fill-palette-color="primary"></rect><mask id="1dcbddf5-84c7-417c-a165-9004c2811dbf"><g id="SvgjsG1106"><svg viewBox="0 0 234.83579528574106 247.2" height="247.2" width="234.83579528574106"><g><svg viewBox="0 0 395.52 416.3442965798009" height="247.2" width="234.83579528574106"><g transform="matrix(1,0,0,1,0,251.45752958361132)"><svg viewBox="0 0 395.52 164.88676699618964" height="164.88676699618964" width="395.52"><g id="SvgjsG1105"><svg viewBox="0 0 395.52 164.88676699618964" height="164.88676699618964" width="395.52" id="SvgjsSvg1104"><g><svg viewBox="0 0 395.52 99.90010672358589" height="99.90010672358589" width="395.52"><g transform="matrix(1,0,0,1,0,0)"><svg width="395.52" viewBox="2.25 -34.9 140.54 35.5" height="99.90010672358589" data-palette-color="url(#a4fa1e31-e1ce-4b97-9f3d-cb21f1a468d4)"><g class="wordmark-text-0" data-fill-palette-color="primary" id="SvgjsG1103"></g></svg></g></svg></g><g transform="matrix(1,0,0,1,0,123.48412431846316)"><svg viewBox="0 0 395.52 41.4026426777265" height="41.4026426777265" width="395.52"><g transform="matrix(1,0,0,1,0,0)"><svg width="395.52" viewBox="0.24 -43.36 415.78999999999996 43.75" height="41.4026426777265" data-palette-color="#2ecc40"><g class="slogan-text-1" data-fill-palette-color="secondary" id="SvgjsG1102"><path d="M118.23 0.39L118.23 0.39Q112.34 0.39 109.74-2.54 107.14-5.47 107.14-11.87L107.14-11.87 107.14-16.06 115.64-16.06 115.64-10.69Q115.64-9.2 116.09-8.36 116.54-7.52 117.66-7.52L117.66-7.52Q118.84-7.52 119.29-8.2 119.74-8.89 119.74-10.45L119.74-10.45Q119.74-12.43 119.35-13.76 118.96-15.09 117.99-16.3 117.03-17.5 115.32-19.12L115.32-19.12 111.46-22.78Q107.14-26.86 107.14-32.1L107.14-32.1Q107.14-37.6 109.69-40.48 112.24-43.36 117.08-43.36L117.08-43.36Q122.99-43.36 125.46-40.21 127.94-37.06 127.94-30.64L127.94-30.64 119.2-30.64 119.2-33.59Q119.2-34.47 118.7-34.96 118.2-35.45 117.35-35.45L117.35-35.45Q116.32-35.45 115.85-34.88 115.37-34.3 115.37-33.4L115.37-33.4Q115.37-32.5 115.86-31.45 116.35-30.4 117.79-29.03L117.79-29.03 122.74-24.27Q124.23-22.85 125.48-21.28 126.72-19.7 127.48-17.61 128.24-15.53 128.24-12.52L128.24-12.52Q128.24-6.47 126-3.04 123.77 0.39 118.23 0.39ZM141.1 0.39L141.1 0.39Q136.44 0.39 133.59-2.51 130.75-5.42 130.75-10.64L130.75-10.64 130.75-30.47Q130.75-36.72 133.23-40.04 135.7-43.36 141.29-43.36L141.29-43.36Q144.35-43.36 146.73-42.24 149.11-41.11 150.47-38.88 151.84-36.65 151.84-33.25L151.84-33.25 151.84-25.83 143.3-25.83 143.3-32.18Q143.3-34.11 142.81-34.78 142.32-35.45 141.29-35.45L141.29-35.45Q140.1-35.45 139.68-34.58 139.27-33.72 139.27-32.28L139.27-32.28 139.27-10.77Q139.27-8.98 139.79-8.25 140.32-7.52 141.29-7.52L141.29-7.52Q142.39-7.52 142.84-8.42 143.3-9.33 143.3-10.77L143.3-10.77 143.3-18.51 151.94-18.51 151.94-10.38Q151.94-4.71 149.08-2.16 146.23 0.39 141.1 0.39ZM165.05 0.39L165.05 0.39Q159.9 0.39 157.17-2.72 154.45-5.83 154.45-11.72L154.45-11.72 154.45-32.13Q154.45-37.65 157.15-40.5 159.85-43.36 165.05-43.36L165.05-43.36Q170.25-43.36 172.94-40.5 175.64-37.65 175.64-32.13L175.64-32.13 175.64-11.72Q175.64-5.83 172.92-2.72 170.2 0.39 165.05 0.39ZM165.12-7.52L165.12-7.52Q167.07-7.52 167.07-11.3L167.07-11.3 167.07-32.28Q167.07-35.45 165.17-35.45L165.17-35.45Q163.02-35.45 163.02-32.2L163.02-32.2 163.02-11.25Q163.02-9.25 163.51-8.39 164-7.52 165.12-7.52ZM187.8 0L179.11 0 179.11-42.97 192.29-42.97Q195.59-42.97 197.27-41.47 198.96-39.97 199.53-37.27 200.1-34.57 200.1-30.93L200.1-30.93Q200.1-27.42 199.21-25.32 198.32-23.22 195.85-22.41L195.85-22.41Q197.88-22 198.7-20.4 199.52-18.8 199.52-16.26L199.52-16.26 199.52 0 191.05 0 191.05-16.82Q191.05-18.7 190.28-19.15 189.51-19.6 187.8-19.6L187.8-19.6 187.8 0ZM187.85-35.01L187.85-27.05 189.92-27.05Q191.7-27.05 191.7-30.93L191.7-30.93Q191.7-33.45 191.31-34.23 190.92-35.01 189.85-35.01L189.85-35.01 187.85-35.01ZM210.84 0L202.54 0 202.54-42.97 210.84-42.97 210.84 0ZM222.66 0L214.26 0 214.26-42.97 223.1-42.97 227.05-22.39 227.05-42.97 235.35-42.97 235.35 0 226.95 0 222.66-21.48 222.66 0ZM248.02 0.39L248.02 0.39Q238.82 0.39 238.82-12.79L238.82-12.79 238.82-31.32Q238.82-43.36 249.36-43.36L249.36-43.36Q253.71-43.36 256.03-41.61 258.35-39.87 259.23-36.52 260.11-33.18 260.11-28.37L260.11-28.37 251.71-28.37 251.71-32.18Q251.71-33.57 251.33-34.51 250.95-35.45 249.75-35.45L249.75-35.45Q248.26-35.45 247.79-34.45 247.31-33.45 247.31-32.25L247.31-32.25 247.31-11.43Q247.31-9.69 247.76-8.61 248.22-7.52 249.53-7.52L249.53-7.52Q250.9-7.52 251.35-8.61 251.8-9.69 251.8-11.47L251.8-11.47 251.8-17.6 249.51-17.6 249.51-25.02 260.01-25.02 260.01 0 256.57 0 255.1-3.61Q252.85 0.39 248.02 0.39Z" fill="black"></path><path d="M283.94 0.39L283.94 0.39Q278.05 0.39 275.45-2.54 272.85-5.47 272.85-11.87L272.85-11.87 272.85-16.06 281.35-16.06 281.35-10.69Q281.35-9.2 281.8-8.36 282.25-7.52 283.37-7.52L283.37-7.52Q284.55-7.52 285-8.2 285.45-8.89 285.45-10.45L285.45-10.45Q285.45-12.43 285.06-13.76 284.67-15.09 283.7-16.3 282.74-17.5 281.03-19.12L281.03-19.12 277.17-22.78Q272.85-26.86 272.85-32.1L272.85-32.1Q272.85-37.6 275.4-40.48 277.95-43.36 282.79-43.36L282.79-43.36Q288.7-43.36 291.17-40.21 293.65-37.06 293.65-30.64L293.65-30.64 284.91-30.64 284.91-33.59Q284.91-34.47 284.41-34.96 283.91-35.45 283.06-35.45L283.06-35.45Q282.03-35.45 281.56-34.88 281.08-34.3 281.08-33.4L281.08-33.4Q281.08-32.5 281.57-31.45 282.06-30.4 283.5-29.03L283.5-29.03 288.45-24.27Q289.94-22.85 291.19-21.28 292.43-19.7 293.19-17.61 293.95-15.53 293.95-12.52L293.95-12.52Q293.95-6.47 291.71-3.04 289.48 0.39 283.94 0.39ZM310.11 0L302 0 302-14.14 295.14-42.97 303.66-42.97 306.05-28.42 308.44-42.97 316.94-42.97 310.11-14.14 310.11 0ZM329.32 0.39L329.32 0.39Q323.43 0.39 320.83-2.54 318.23-5.47 318.23-11.87L318.23-11.87 318.23-16.06 326.73-16.06 326.73-10.69Q326.73-9.2 327.18-8.36 327.63-7.52 328.75-7.52L328.75-7.52Q329.93-7.52 330.38-8.2 330.83-8.89 330.83-10.45L330.83-10.45Q330.83-12.43 330.44-13.76 330.05-15.09 329.08-16.3 328.12-17.5 326.41-19.12L326.41-19.12 322.55-22.78Q318.23-26.86 318.23-32.1L318.23-32.1Q318.23-37.6 320.78-40.48 323.33-43.36 328.17-43.36L328.17-43.36Q334.08-43.36 336.56-40.21 339.03-37.06 339.03-30.64L339.03-30.64 330.29-30.64 330.29-33.59Q330.29-34.47 329.79-34.96 329.29-35.45 328.44-35.45L328.44-35.45Q327.41-35.45 326.94-34.88 326.46-34.3 326.46-33.4L326.46-33.4Q326.46-32.5 326.95-31.45 327.44-30.4 328.88-29.03L328.88-29.03 333.83-24.27Q335.32-22.85 336.57-21.28 337.81-19.7 338.57-17.61 339.33-15.53 339.33-12.52L339.33-12.52Q339.33-6.47 337.09-3.04 334.86 0.39 329.32 0.39ZM354.46 0L345.87 0 345.87-34.72 340.76-34.72 340.76-42.97 359.56-42.97 359.56-34.72 354.46-34.72 354.46 0ZM379.7 0L361.95 0 361.95-42.97 379.14-42.97 379.14-34.67 370.69-34.67 370.69-26.29 378.8-26.29 378.8-18.21 370.69-18.21 370.69-8.37 379.7-8.37 379.7 0ZM390.3 0L382.53 0 382.53-42.97 395.62-42.97 399.23-16.77 402.82-42.97 416.03-42.97 416.03 0 408.17 0 408.17-30.96 403.23 0 395.52 0 390.3-30.96 390.3 0Z" fill="white"></path></g></svg></g></svg></g></svg></g></svg></g><g transform="matrix(1,0,0,1,85.40438180718206,0)"><svg viewBox="0 0 224.71123638563586 227.87351198873407" height="227.87351198873407" width="224.71123638563586"><g><svg xmlns="http://www.w3.org/2000/svg" xmlns:xlink="http://www.w3.org/1999/xlink" version="1.1" x="0" y="0" viewBox="5.611392405413278 5.03 88.77569349357734 90.02500000000003" enable-background="new 0 0 100 100" xml:space="preserve" height="227.87351198873407" width="224.71123638563586" class="icon-icon-0" data-fill-palette-color="accent" id="SvgjsSvg1101"><g fill="white"><path d="M50.489 5.03c-5.545 0-10.058 4.511-10.058 10.057s4.512 10.059 10.058 10.059c5.547 0 10.058-4.513 10.058-10.059S56.036 5.03 50.489 5.03z" fill="white"></path><path d="M65.216 59.285c0.839 3.503 9.153 5.193 16.49 6.686 2.944 0.6 5.488 1.117 7.024 1.665 0.615 0.22 1.217 0.331 1.793 0.331 2.335 0 3.73-1.803 3.855-3.499 0.104-1.421-0.668-3.213-3.186-3.587-4.896-0.725-12.808-3.803-16.849-6.111-3.688-2.109-4.627-11.376-4.827-14.167-0.033-0.471-0.035-0.954-0.037-1.463-0.011-2.25-0.024-4.801-2.894-7.191-1.487-1.24-3.103-1.679-4.665-2.103-2.076-0.565-4.223-1.147-6.295-3.634-0.097-0.117-0.257-0.163-0.399-0.117-1.506 0.483-3.062 0.729-4.628 0.729-2.354 0-4.023-0.562-4.376-0.692-0.022-0.014-0.044-0.026-0.068-0.038-0.151-0.062-0.325-0.019-0.428 0.107-2.072 2.486-4.219 3.069-6.295 3.633-1.562 0.424-3.177 0.864-4.665 2.103-2.87 2.39-2.883 4.941-2.894 7.192-0.002 0.51-0.004 0.992-0.039 1.463-0.175 2.439-2.068 12.23-5.808 14.367-4.041 2.308-11.953 5.386-16.848 6.111-2.627 0.389-3.685 2.447-3.555 4.195 0.112 1.536 1.206 3.188 3.337 3.188 0.536 0 1.11-0.107 1.705-0.32 1.519-0.542 4.125-1.085 7.143-1.712 7.353-1.529 16.503-3.433 17.347-6.948 0.896-3.727 3.281-9.283 4.155-11.256 0.87 1.929 2.955 7.515 0.76 12.781l-0.46 1.11c-1.72 4.155-2.133 5.034-3.539 5.034-0.596 0-1.37-0.156-2.48-0.396-1.437-0.311-4.317-0.51-7.341-0.51-4.071 0-13.897 0.375-17.204 3.861-0.78 0.823-1.149 1.77-1.093 2.815 0.407 7.73 6.43 9.31 8.022 9.31 0.725 0 2.091 0.944 3.411 1.856 1.593 1.103 3.098 2.143 4.194 2.143 0.209 0 0.4-0.038 0.569-0.113 0.226-0.101 0.49-0.175 0.789-0.221-1.099 0.328-2.168 0.904-2.774 1.909-0.81 1.344-0.618 3.168 0.57 5.421 0.639 1.213 1.602 1.827 2.861 1.827 1.671 0 3.526-1.062 5.164-1.999 1.039-0.594 2.021-1.155 2.524-1.155 0.044 0 0.081 0.006 0.111 0.015 0.889 0.296 4.378 0.4 7.096 0.4 3.865 0 8.759-0.197 10.077-0.754l0.621 0.008c1.67 0.72 8.473 0.757 9.842 0.757 2.641 0 6.04-0.105 6.928-0.401 0.03-0.009 0.068-0.015 0.112-0.015 0.503 0 1.484 0.562 2.524 1.157 1.637 0.936 3.491 1.998 5.163 1.998l0 0c1.259 0 2.222-0.615 2.86-1.828 1.189-2.253 1.38-4.077 0.569-5.421-0.604-1.004-1.674-1.58-2.772-1.909 0.299 0.047 0.562 0.121 0.789 0.221 0.169 0.076 0.36 0.113 0.568 0.113 1.097 0 2.602-1.04 4.192-2.141 1.323-0.914 2.688-1.858 3.412-1.858 1.593 0 7.616-1.579 8.024-9.308 0.055-1.048-0.314-1.994-1.094-2.817C89 66.626 79.175 66.249 75.104 66.249c-3.023 0-5.904 0.2-7.341 0.51-1.112 0.239-1.886 0.396-2.481 0.396-1.406 0-1.819-0.88-3.539-5.037l-0.46-1.108c-2.152-5.166-0.188-10.638 0.71-12.666C62.665 50.404 64.341 55.646 65.216 59.285z" fill="white"></path></g></svg></g></svg></g><g></g></svg></g><defs><mask></mask></defs><mask><g id="SvgjsG1100"><svg viewBox="0 0 234.83579528574106 247.2" height="247.2" width="234.83579528574106"><g><svg viewBox="0 0 395.52 416.3442965798009" height="247.2" width="234.83579528574106"><g transform="matrix(1,0,0,1,0,251.45752958361132)"><svg viewBox="0 0 395.52 164.88676699618964" height="164.88676699618964" width="395.52"><g id="SvgjsG1099"><svg viewBox="0 0 395.52 164.88676699618964" height="164.88676699618964" width="395.52" id="SvgjsSvg1098"><g><svg viewBox="0 0 395.52 99.90010672358589" height="99.90010672358589" width="395.52"><g transform="matrix(1,0,0,1,0,0)"><svg width="395.52" viewBox="2.25 -34.9 140.54 35.5" height="99.90010672358589" data-palette-color="url(#a4fa1e31-e1ce-4b97-9f3d-cb21f1a468d4)"><g class="wordmark-text-0" data-fill-palette-color="primary" id="SvgjsG1097"><path d="M14.2 0.6L14.2 0.6Q8.55 0.6 5.4-2.63 2.25-5.85 2.25-12.5L2.25-12.5Q2.25-15.65 2.78-18.85 3.3-22.05 4.4-24.93 5.5-27.8 7.33-30.05 9.15-32.3 11.7-33.6 14.25-34.9 17.65-34.9L17.65-34.9Q23.05-34.9 26.25-31.75 29.45-28.6 29.45-22.2L29.45-22.2 29.45-21.55 22.95-21.55 22.95-22.45Q22.95-25.8 21.55-27.6 20.15-29.4 17.65-29.4L17.65-29.4Q15.85-29.4 14.45-28.63 13.05-27.85 12.08-26.53 11.1-25.2 10.45-23.48 9.8-21.75 9.4-19.9 9-18.05 8.85-16.2 8.7-14.35 8.7-12.75L8.7-12.75Q8.7-9.05 10.08-6.98 11.45-4.9 14.35-4.9L14.35-4.9Q16.6-4.9 18.15-5.98 19.7-7.05 20.65-8.83 21.6-10.6 22.05-12.7L22.05-12.7 28.3-12.7Q27.55-9.15 25.78-6.1 24-3.05 21.15-1.23 18.3 0.6 14.2 0.6ZM43.05 0.6L43.05 0.6Q37.75 0.6 34.8-2.63 31.85-5.85 31.85-12.5L31.85-12.5Q31.85-15.5 32.4-18.65 32.95-21.8 34.12-24.7 35.3-27.6 37.17-29.9 39.05-32.2 41.72-33.55 44.4-34.9 47.95-34.9L47.95-34.9Q53.6-34.9 56.92-31.8 60.25-28.7 60.25-22.35L60.25-22.35 53.75-22.35 53.75-22.8Q53.75-26.05 52.25-27.73 50.75-29.4 48.2-29.4L48.2-29.4Q45.8-29.4 44.07-28.3 42.35-27.2 41.22-25.38 40.1-23.55 39.47-21.35 38.85-19.15 38.57-16.9 38.3-14.65 38.3-12.75L38.3-12.75Q38.3-9.05 39.77-6.98 41.25-4.9 44.45-4.9L44.45-4.9Q46.85-4.9 48.5-5.93 50.15-6.95 51.15-8.83 52.15-10.7 52.55-13.15L52.55-13.15 52.95-15.4 55.3-13.15 44.9-13.15 45.7-18.65 59.8-18.65 57.2 0 53.1 0 52.5-3.8Q50.8-1.8 48.45-0.6 46.1 0.6 43.05 0.6ZM76.75 0L70.45 0 72.25-12.95 64.84-34.3 71.34-34.3 76.3-19.25 76.5-19.25 85.45-34.3 91.9-34.3 78.59-12.95 76.75 0ZM101.79 0.6L101.79 0.6Q99.89 0.6 97.89 0.1 95.89-0.4 94.19-1.48 92.49-2.55 91.44-4.3 90.39-6.05 90.39-8.6L90.39-8.6Q90.39-9.45 90.49-10.38 90.59-11.3 90.64-11.65L90.64-11.65 97.24-11.65Q97.19-11.35 97.09-10.78 96.99-10.2 96.99-9.25L96.99-9.25Q96.99-8.4 97.37-7.38 97.74-6.35 98.87-5.63 99.99-4.9 102.19-4.9L102.19-4.9Q103.54-4.9 104.54-5.28 105.54-5.65 106.24-6.28 106.94-6.9 107.29-7.7 107.64-8.5 107.64-9.35L107.64-9.35Q107.64-11.1 106.59-12.25 105.54-13.4 103.89-14.2 102.24-15 100.39-15.83 98.54-16.65 96.89-17.7 95.24-18.75 94.19-20.4 93.14-22.05 93.14-24.55L93.14-24.55Q93.14-27.05 94.27-29.43 95.39-31.8 97.94-33.35 100.49-34.9 104.74-34.9L104.74-34.9Q109.09-34.9 111.39-33.43 113.69-31.95 114.57-29.53 115.44-27.1 115.44-24.2L115.44-24.2 108.99-24.2Q108.99-25.65 108.52-26.83 108.04-28 107.04-28.68 106.04-29.35 104.39-29.35L104.39-29.35Q103.99-29.35 103.24-29.25 102.49-29.15 101.72-28.8 100.94-28.45 100.39-27.73 99.84-27 99.84-25.8L99.84-25.8Q99.84-24.25 100.89-23.28 101.94-22.3 103.59-21.58 105.24-20.85 107.07-20.08 108.89-19.3 110.54-18.15 112.19-17 113.24-15.23 114.29-13.45 114.29-10.65L114.29-10.65Q114.29-7.95 113.34-5.85 112.39-3.75 110.69-2.33 108.99-0.9 106.72-0.15 104.44 0.6 101.79 0.6ZM129.14 0.6L129.14 0.6Q127.24 0.6 125.24 0.1 123.24-0.4 121.54-1.48 119.84-2.55 118.79-4.3 117.74-6.05 117.74-8.6L117.74-8.6Q117.74-9.45 117.84-10.38 117.94-11.3 117.99-11.65L117.99-11.65 124.59-11.65Q124.54-11.35 124.44-10.78 124.34-10.2 124.34-9.25L124.34-9.25Q124.34-8.4 124.72-7.38 125.09-6.35 126.22-5.63 127.34-4.9 129.54-4.9L129.54-4.9Q130.89-4.9 131.89-5.28 132.89-5.65 133.59-6.28 134.29-6.9 134.64-7.7 134.99-8.5 134.99-9.35L134.99-9.35Q134.99-11.1 133.94-12.25 132.89-13.4 131.24-14.2 129.59-15 127.74-15.83 125.89-16.65 124.24-17.7 122.59-18.75 121.54-20.4 120.49-22.05 120.49-24.55L120.49-24.55Q120.49-27.05 121.61-29.43 122.74-31.8 125.29-33.35 127.84-34.9 132.09-34.9L132.09-34.9Q136.44-34.9 138.74-33.43 141.04-31.95 141.91-29.53 142.79-27.1 142.79-24.2L142.79-24.2 136.34-24.2Q136.34-25.65 135.87-26.83 135.39-28 134.39-28.68 133.39-29.35 131.74-29.35L131.74-29.35Q131.34-29.35 130.59-29.25 129.84-29.15 129.06-28.8 128.29-28.45 127.74-27.73 127.19-27 127.19-25.8L127.19-25.8Q127.19-24.25 128.24-23.28 129.29-22.3 130.94-21.58 132.59-20.85 134.41-20.08 136.24-19.3 137.89-18.15 139.54-17 140.59-15.23 141.64-13.45 141.64-10.65L141.64-10.65Q141.64-7.95 140.69-5.85 139.74-3.75 138.04-2.33 136.34-0.9 134.06-0.15 131.79 0.6 129.14 0.6Z" fill="black"></path></g></svg></g></svg></g><g transform="matrix(1,0,0,1,0,123.48412431846316)"><svg viewBox="0 0 395.52 41.4026426777265" height="41.4026426777265" width="395.52"><g transform="matrix(1,0,0,1,0,0)"><svg width="395.52" viewBox="0.24 -43.36 415.78999999999996 43.75" height="41.4026426777265" data-palette-color="#2ecc40"><g class="slogan-text-1" data-fill-palette-color="secondary" id="SvgjsG1096"><path d="M15.21 0L7.1 0 7.1-14.14 0.24-42.97 8.76-42.97 11.16-28.42 13.55-42.97 22.05-42.97 15.21-14.14 15.21 0ZM34.47 0.39L34.47 0.39Q29.32 0.39 26.6-2.72 23.87-5.83 23.87-11.72L23.87-11.72 23.87-32.13Q23.87-37.65 26.57-40.5 29.27-43.36 34.47-43.36L34.47-43.36Q39.67-43.36 42.37-40.5 45.07-37.65 45.07-32.13L45.07-32.13 45.07-11.72Q45.07-5.83 42.34-2.72 39.62 0.39 34.47 0.39ZM34.54-7.52L34.54-7.52Q36.5-7.52 36.5-11.3L36.5-11.3 36.5-32.28Q36.5-35.45 34.59-35.45L34.59-35.45Q32.44-35.45 32.44-32.2L32.44-32.2 32.44-11.25Q32.44-9.25 32.93-8.39 33.42-7.52 34.54-7.52ZM57.39 0.39L57.39 0.39Q48.19 0.39 48.19-12.79L48.19-12.79 48.19-31.32Q48.19-43.36 58.74-43.36L58.74-43.36Q63.08-43.36 65.4-41.61 67.72-39.87 68.6-36.52 69.48-33.18 69.48-28.37L69.48-28.37 61.08-28.37 61.08-32.18Q61.08-33.57 60.7-34.51 60.32-35.45 59.13-35.45L59.13-35.45Q57.64-35.45 57.16-34.45 56.68-33.45 56.68-32.25L56.68-32.25 56.68-11.43Q56.68-9.69 57.14-8.61 57.59-7.52 58.91-7.52L58.91-7.52Q60.27-7.52 60.72-8.61 61.18-9.69 61.18-11.47L61.18-11.47 61.18-17.6 58.88-17.6 58.88-25.02 69.38-25.02 69.38 0 65.94 0 64.47-3.61Q62.23 0.39 57.39 0.39ZM79.95 0L71.6 0 75.75-42.97 90.32-42.97 94.4 0 86.27 0 85.66-6.93 80.49-6.93 79.95 0ZM82.73-35.64L81.1-13.79 85-13.79 83.12-35.64 82.73-35.64Z" fill="black"></path><path d="M118.23 0.39L118.23 0.39Q112.34 0.39 109.74-2.54 107.14-5.47 107.14-11.87L107.14-11.87 107.14-16.06 115.64-16.06 115.64-10.69Q115.64-9.2 116.09-8.36 116.54-7.52 117.66-7.52L117.66-7.52Q118.84-7.52 119.29-8.2 119.74-8.89 119.74-10.45L119.74-10.45Q119.74-12.43 119.35-13.76 118.96-15.09 117.99-16.3 117.03-17.5 115.32-19.12L115.32-19.12 111.46-22.78Q107.14-26.86 107.14-32.1L107.14-32.1Q107.14-37.6 109.69-40.48 112.24-43.36 117.08-43.36L117.08-43.36Q122.99-43.36 125.46-40.21 127.94-37.06 127.94-30.64L127.94-30.64 119.2-30.64 119.2-33.59Q119.2-34.47 118.7-34.96 118.2-35.45 117.35-35.45L117.35-35.45Q116.32-35.45 115.85-34.88 115.37-34.3 115.37-33.4L115.37-33.4Q115.37-32.5 115.86-31.45 116.35-30.4 117.79-29.03L117.79-29.03 122.74-24.27Q124.23-22.85 125.48-21.28 126.72-19.7 127.48-17.61 128.24-15.53 128.24-12.52L128.24-12.52Q128.24-6.47 126-3.04 123.77 0.39 118.23 0.39ZM141.1 0.39L141.1 0.39Q136.44 0.39 133.59-2.51 130.75-5.42 130.75-10.64L130.75-10.64 130.75-30.47Q130.75-36.72 133.23-40.04 135.7-43.36 141.29-43.36L141.29-43.36Q144.35-43.36 146.73-42.24 149.11-41.11 150.47-38.88 151.84-36.65 151.84-33.25L151.84-33.25 151.84-25.83 143.3-25.83 143.3-32.18Q143.3-34.11 142.81-34.78 142.32-35.45 141.29-35.45L141.29-35.45Q140.1-35.45 139.68-34.58 139.27-33.72 139.27-32.28L139.27-32.28 139.27-10.77Q139.27-8.98 139.79-8.25 140.32-7.52 141.29-7.52L141.29-7.52Q142.39-7.52 142.84-8.42 143.3-9.33 143.3-10.77L143.3-10.77 143.3-18.51 151.94-18.51 151.94-10.38Q151.94-4.71 149.08-2.16 146.23 0.39 141.1 0.39ZM165.05 0.39L165.05 0.39Q159.9 0.39 157.17-2.72 154.45-5.83 154.45-11.72L154.45-11.72 154.45-32.13Q154.45-37.65 157.15-40.5 159.85-43.36 165.05-43.36L165.05-43.36Q170.25-43.36 172.94-40.5 175.64-37.65 175.64-32.13L175.64-32.13 175.64-11.72Q175.64-5.83 172.92-2.72 170.2 0.39 165.05 0.39ZM165.12-7.52L165.12-7.52Q167.07-7.52 167.07-11.3L167.07-11.3 167.07-32.28Q167.07-35.45 165.17-35.45L165.17-35.45Q163.02-35.45 163.02-32.2L163.02-32.2 163.02-11.25Q163.02-9.25 163.51-8.39 164-7.52 165.12-7.52ZM187.8 0L179.11 0 179.11-42.97 192.29-42.97Q195.59-42.97 197.27-41.47 198.96-39.97 199.53-37.27 200.1-34.57 200.1-30.93L200.1-30.93Q200.1-27.42 199.21-25.32 198.32-23.22 195.85-22.41L195.85-22.41Q197.88-22 198.7-20.4 199.52-18.8 199.52-16.26L199.52-16.26 199.52 0 191.05 0 191.05-16.82Q191.05-18.7 190.28-19.15 189.51-19.6 187.8-19.6L187.8-19.6 187.8 0ZM187.85-35.01L187.85-27.05 189.92-27.05Q191.7-27.05 191.7-30.93L191.7-30.93Q191.7-33.45 191.31-34.23 190.92-35.01 189.85-35.01L189.85-35.01 187.85-35.01ZM210.84 0L202.54 0 202.54-42.97 210.84-42.97 210.84 0ZM222.66 0L214.26 0 214.26-42.97 223.1-42.97 227.05-22.39 227.05-42.97 235.35-42.97 235.35 0 226.95 0 222.66-21.48 222.66 0ZM248.02 0.39L248.02 0.39Q238.82 0.39 238.82-12.79L238.82-12.79 238.82-31.32Q238.82-43.36 249.36-43.36L249.36-43.36Q253.71-43.36 256.03-41.61 258.35-39.87 259.23-36.52 260.11-33.18 260.11-28.37L260.11-28.37 251.71-28.37 251.71-32.18Q251.71-33.57 251.33-34.51 250.95-35.45 249.75-35.45L249.75-35.45Q248.26-35.45 247.79-34.45 247.31-33.45 247.31-32.25L247.31-32.25 247.31-11.43Q247.31-9.69 247.76-8.61 248.22-7.52 249.53-7.52L249.53-7.52Q250.9-7.52 251.35-8.61 251.8-9.69 251.8-11.47L251.8-11.47 251.8-17.6 249.51-17.6 249.51-25.02 260.01-25.02 260.01 0 256.57 0 255.1-3.61Q252.85 0.39 248.02 0.39Z" fill="black"></path><path d="M283.94 0.39L283.94 0.39Q278.05 0.39 275.45-2.54 272.85-5.47 272.85-11.87L272.85-11.87 272.85-16.06 281.35-16.06 281.35-10.69Q281.35-9.2 281.8-8.36 282.25-7.52 283.37-7.52L283.37-7.52Q284.55-7.52 285-8.2 285.45-8.89 285.45-10.45L285.45-10.45Q285.45-12.43 285.06-13.76 284.67-15.09 283.7-16.3 282.74-17.5 281.03-19.12L281.03-19.12 277.17-22.78Q272.85-26.86 272.85-32.1L272.85-32.1Q272.85-37.6 275.4-40.48 277.95-43.36 282.79-43.36L282.79-43.36Q288.7-43.36 291.17-40.21 293.65-37.06 293.65-30.64L293.65-30.64 284.91-30.64 284.91-33.59Q284.91-34.47 284.41-34.96 283.91-35.45 283.06-35.45L283.06-35.45Q282.03-35.45 281.56-34.88 281.08-34.3 281.08-33.4L281.08-33.4Q281.08-32.5 281.57-31.45 282.06-30.4 283.5-29.03L283.5-29.03 288.45-24.27Q289.94-22.85 291.19-21.28 292.43-19.7 293.19-17.61 293.95-15.53 293.95-12.52L293.95-12.52Q293.95-6.47 291.71-3.04 289.48 0.39 283.94 0.39ZM310.11 0L302 0 302-14.14 295.14-42.97 303.66-42.97 306.05-28.42 308.44-42.97 316.94-42.97 310.11-14.14 310.11 0ZM329.32 0.39L329.32 0.39Q323.43 0.39 320.83-2.54 318.23-5.47 318.23-11.87L318.23-11.87 318.23-16.06 326.73-16.06 326.73-10.69Q326.73-9.2 327.18-8.36 327.63-7.52 328.75-7.52L328.75-7.52Q329.93-7.52 330.38-8.2 330.83-8.89 330.83-10.45L330.83-10.45Q330.83-12.43 330.44-13.76 330.05-15.09 329.08-16.3 328.12-17.5 326.41-19.12L326.41-19.12 322.55-22.78Q318.23-26.86 318.23-32.1L318.23-32.1Q318.23-37.6 320.78-40.48 323.33-43.36 328.17-43.36L328.17-43.36Q334.08-43.36 336.56-40.21 339.03-37.06 339.03-30.64L339.03-30.64 330.29-30.64 330.29-33.59Q330.29-34.47 329.79-34.96 329.29-35.45 328.44-35.45L328.44-35.45Q327.41-35.45 326.94-34.88 326.46-34.3 326.46-33.4L326.46-33.4Q326.46-32.5 326.95-31.45 327.44-30.4 328.88-29.03L328.88-29.03 333.83-24.27Q335.32-22.85 336.57-21.28 337.81-19.7 338.57-17.61 339.33-15.53 339.33-12.52L339.33-12.52Q339.33-6.47 337.09-3.04 334.86 0.39 329.32 0.39ZM354.46 0L345.87 0 345.87-34.72 340.76-34.72 340.76-42.97 359.56-42.97 359.56-34.72 354.46-34.72 354.46 0ZM379.7 0L361.95 0 361.95-42.97 379.14-42.97 379.14-34.67 370.69-34.67 370.69-26.29 378.8-26.29 378.8-18.21 370.69-18.21 370.69-8.37 379.7-8.37 379.7 0ZM390.3 0L382.53 0 382.53-42.97 395.62-42.97 399.23-16.77 402.82-42.97 416.03-42.97 416.03 0 408.17 0 408.17-30.96 403.23 0 395.52 0 390.3-30.96 390.3 0Z" fill="black"></path></g></svg></g></svg></g></svg></g></svg></g><g transform="matrix(1,0,0,1,85.40438180718206,0)"><svg viewBox="0 0 224.71123638563586 227.87351198873407" height="227.87351198873407" width="224.71123638563586"><g><svg xmlns="http://www.w3.org/2000/svg" xmlns:xlink="http://www.w3.org/1999/xlink" version="1.1" x="0" y="0" viewBox="5.611392405413278 5.03 88.77569349357734 90.02500000000003" enable-background="new 0 0 100 100" xml:space="preserve" height="227.87351198873407" width="224.71123638563586" class="icon-icon-0" data-fill-palette-color="accent" id="SvgjsSvg1095"><g fill="black"><path d="M50.489 5.03c-5.545 0-10.058 4.511-10.058 10.057s4.512 10.059 10.058 10.059c5.547 0 10.058-4.513 10.058-10.059S56.036 5.03 50.489 5.03z" fill="black"></path><path d="M65.216 59.285c0.839 3.503 9.153 5.193 16.49 6.686 2.944 0.6 5.488 1.117 7.024 1.665 0.615 0.22 1.217 0.331 1.793 0.331 2.335 0 3.73-1.803 3.855-3.499 0.104-1.421-0.668-3.213-3.186-3.587-4.896-0.725-12.808-3.803-16.849-6.111-3.688-2.109-4.627-11.376-4.827-14.167-0.033-0.471-0.035-0.954-0.037-1.463-0.011-2.25-0.024-4.801-2.894-7.191-1.487-1.24-3.103-1.679-4.665-2.103-2.076-0.565-4.223-1.147-6.295-3.634-0.097-0.117-0.257-0.163-0.399-0.117-1.506 0.483-3.062 0.729-4.628 0.729-2.354 0-4.023-0.562-4.376-0.692-0.022-0.014-0.044-0.026-0.068-0.038-0.151-0.062-0.325-0.019-0.428 0.107-2.072 2.486-4.219 3.069-6.295 3.633-1.562 0.424-3.177 0.864-4.665 2.103-2.87 2.39-2.883 4.941-2.894 7.192-0.002 0.51-0.004 0.992-0.039 1.463-0.175 2.439-2.068 12.23-5.808 14.367-4.041 2.308-11.953 5.386-16.848 6.111-2.627 0.389-3.685 2.447-3.555 4.195 0.112 1.536 1.206 3.188 3.337 3.188 0.536 0 1.11-0.107 1.705-0.32 1.519-0.542 4.125-1.085 7.143-1.712 7.353-1.529 16.503-3.433 17.347-6.948 0.896-3.727 3.281-9.283 4.155-11.256 0.87 1.929 2.955 7.515 0.76 12.781l-0.46 1.11c-1.72 4.155-2.133 5.034-3.539 5.034-0.596 0-1.37-0.156-2.48-0.396-1.437-0.311-4.317-0.51-7.341-0.51-4.071 0-13.897 0.375-17.204 3.861-0.78 0.823-1.149 1.77-1.093 2.815 0.407 7.73 6.43 9.31 8.022 9.31 0.725 0 2.091 0.944 3.411 1.856 1.593 1.103 3.098 2.143 4.194 2.143 0.209 0 0.4-0.038 0.569-0.113 0.226-0.101 0.49-0.175 0.789-0.221-1.099 0.328-2.168 0.904-2.774 1.909-0.81 1.344-0.618 3.168 0.57 5.421 0.639 1.213 1.602 1.827 2.861 1.827 1.671 0 3.526-1.062 5.164-1.999 1.039-0.594 2.021-1.155 2.524-1.155 0.044 0 0.081 0.006 0.111 0.015 0.889 0.296 4.378 0.4 7.096 0.4 3.865 0 8.759-0.197 10.077-0.754l0.621 0.008c1.67 0.72 8.473 0.757 9.842 0.757 2.641 0 6.04-0.105 6.928-0.401 0.03-0.009 0.068-0.015 0.112-0.015 0.503 0 1.484 0.562 2.524 1.157 1.637 0.936 3.491 1.998 5.163 1.998l0 0c1.259 0 2.222-0.615 2.86-1.828 1.189-2.253 1.38-4.077 0.569-5.421-0.604-1.004-1.674-1.58-2.772-1.909 0.299 0.047 0.562 0.121 0.789 0.221 0.169 0.076 0.36 0.113 0.568 0.113 1.097 0 2.602-1.04 4.192-2.141 1.323-0.914 2.688-1.858 3.412-1.858 1.593 0 7.616-1.579 8.024-9.308 0.055-1.048-0.314-1.994-1.094-2.817C89 66.626 79.175 66.249 75.104 66.249c-3.023 0-5.904 0.2-7.341 0.51-1.112 0.239-1.886 0.396-2.481 0.396-1.406 0-1.819-0.88-3.539-5.037l-0.46-1.108c-2.152-5.166-0.188-10.638 0.71-12.666C62.665 50.404 64.341 55.646 65.216 59.285z" fill="black"></path></g></svg></g></svg></g><g></g></svg></g><defs><mask></mask></defs></svg><rect width="234.83579528574106" height="247.2" fill="black" stroke="none" visibility="hidden"></rect></g></mask></svg><rect width="234.83579528574106" height="247.2" fill="black" stroke="none" visibility="hidden"></rect></g></mask><linearGradient x1="0" x2="1" y1="0.5" y2="0.5" id="80ff8535-4645-4d54-93bd-607f651377eb"><stop stop-color="#ffa62e" offset="0"></stop><stop stop-color="#f71b3d" offset="1"></stop></linearGradient><rect width="234.83579528574106" height="247.2" fill="#ffffff" mask="url(#1dcbddf5-84c7-417c-a165-9004c2811dbf)" data-fill-palette-color="accent"></rect></svg><rect width="234.83579528574106" height="247.2" fill="none" stroke="none" visibility="hidden"></rect></g></svg></g></svg>