<svg xmlns="http://www.w3.org/2000/svg" version="1.1" xmlns:xlink="http://www.w3.org/1999/xlink" xmlns:svgjs="http://svgjs.dev/svgjs" width="200" height="70" viewBox="0 0 1500 484"><g transform="matrix(1,0,0,1,-0.9090909090911055,0.32287706749116296)"><svg viewBox="0 0 396 128" data-background-color="#ffffff" preserveAspectRatio="xMidYMid meet" height="484" width="1500" xmlns="http://www.w3.org/2000/svg" xmlns:xlink="http://www.w3.org/1999/xlink"><g id="tight-bounds" transform="matrix(1,0,0,1,0.24000000000003752,-0.08538897652658761)"><svg viewBox="0 0 395.5199999999999 128.1707779530532" height="128.1707779530532" width="395.5199999999999"><g><svg viewBox="0 0 694.4003508982444 225.02486141156228" height="128.1707779530532" width="395.5199999999999"><g></g><g></g><g transform="matrix(1,0,0,1,298.88035089824433,31.099673320990163)"><svg viewBox="0 0 395.52 162.82551476958196" height="162.82551476958196" width="395.52"><g id="textblocktransform"><svg viewBox="0 0 395.52 162.82551476958196" height="162.82551476958196" width="395.52" id="textblock"><g><svg viewBox="0 0 395.52 99.90010672358589" height="99.90010672358589" width="395.52"><g transform="matrix(1,0,0,1,0,0)"><svg width="395.52" viewBox="2.25 -34.9 140.54 35.5" height="99.90010672358589" data-palette-color="url(#f9909335-7bee-43e5-82b0-288cabebe0ba)"><g class="wordmark-text-0" data-fill-palette-color="primary" id="text-0"></g></svg></g></svg></g><g transform="matrix(1,0,0,1,0,123.48412431846316)"><svg viewBox="0 0 375.74399999999997 39.34139045111882" height="39.34139045111882" width="375.74399999999997"><g transform="matrix(1,0,0,1,0,0)"><svg width="375.74399999999997" viewBox="0.25 -43.35 415.71 43.75" height="39.34139045111882" data-palette-color="#2ecc40"><g class="slogan-text-1" data-fill-palette-color="secondary" id="text-1"><path d="M118.19 0.4Q112.34 0.4 109.74-2.5 107.14-5.4 107.14-11.85L107.14-11.85 107.14-16.05 115.59-16.05 115.59-10.7Q115.59-7.5 117.64-7.5L117.64-7.5Q118.79-7.5 119.24-8.18 119.69-8.85 119.69-10.45L119.69-10.45Q119.69-12.55 119.19-13.93 118.69-15.3 117.91-16.23 117.14-17.15 115.14-19.1L115.14-19.1 111.44-22.8Q107.14-27 107.14-32.1L107.14-32.1Q107.14-37.6 109.66-40.48 112.19-43.35 117.04-43.35L117.04-43.35Q122.84-43.35 125.39-40.28 127.94-37.2 127.94-30.65L127.94-30.65 119.19-30.65 119.14-33.6Q119.14-34.45 118.66-34.95 118.19-35.45 117.34-35.45L117.34-35.45Q116.34-35.45 115.84-34.9 115.34-34.35 115.34-33.4L115.34-33.4Q115.34-31.3 117.74-29.05L117.74-29.05 122.74-24.25Q124.49-22.55 125.64-21.03 126.79-19.5 127.49-17.43 128.19-15.35 128.19-12.5L128.19-12.5Q128.19-6.15 125.86-2.88 123.54 0.4 118.19 0.4L118.19 0.4ZM141.04 0.4Q136.34 0.4 133.51-2.55 130.69-5.5 130.69-10.65L130.69-10.65 130.69-30.45Q130.69-36.85 133.24-40.1 135.79-43.35 141.24-43.35L141.24-43.35Q145.99-43.35 148.89-40.75 151.79-38.15 151.79-33.25L151.79-33.25 151.79-25.85 143.24-25.85 143.24-32.2Q143.24-34.05 142.79-34.75 142.34-35.45 141.24-35.45L141.24-35.45Q140.09-35.45 139.66-34.65 139.24-33.85 139.24-32.3L139.24-32.3 139.24-10.75Q139.24-9.05 139.74-8.28 140.24-7.5 141.24-7.5L141.24-7.5Q143.24-7.5 143.24-10.75L143.24-10.75 143.24-18.5 151.89-18.5 151.89-10.4Q151.89 0.4 141.04 0.4L141.04 0.4ZM164.98 0.4Q159.78 0.4 157.08-2.78 154.38-5.95 154.38-11.7L154.38-11.7 154.38-32.15Q154.38-37.7 157.08-40.53 159.78-43.35 164.98-43.35L164.98-43.35Q170.18-43.35 172.88-40.53 175.58-37.7 175.58-32.15L175.58-32.15 175.58-11.7Q175.58-5.9 172.88-2.75 170.18 0.4 164.98 0.4L164.98 0.4ZM164.98-7.5Q166.13-7.5 166.53-8.5 166.93-9.5 166.93-11.3L166.93-11.3 166.93-32.3Q166.93-33.7 166.56-34.58 166.18-35.45 165.03-35.45L165.03-35.45Q162.88-35.45 162.88-32.2L162.88-32.2 162.88-11.25Q162.88-9.4 163.33-8.45 163.78-7.5 164.98-7.5L164.98-7.5ZM179.03 0L179.03-42.95 192.23-42.95Q195.38-42.95 197.11-41.53 198.83-40.1 199.43-37.52 200.03-34.95 200.03-30.95L200.03-30.95Q200.03-27.3 199.08-25.25 198.13-23.2 195.78-22.4L195.78-22.4Q197.73-22 198.61-20.45 199.48-18.9 199.48-16.25L199.48-16.25 199.38 0 190.98 0 190.98-16.8Q190.98-18.6 190.28-19.1 189.58-19.6 187.73-19.6L187.73-19.6 187.73 0 179.03 0ZM187.78-27.05L189.83-27.05Q191.63-27.05 191.63-30.95L191.63-30.95Q191.63-32.65 191.48-33.5 191.33-34.35 190.93-34.68 190.53-35 189.78-35L189.78-35 187.78-35 187.78-27.05ZM210.78 0L202.48 0 202.48-42.95 210.78-42.95 210.78 0ZM222.63 0L214.23 0 214.23-42.95 223.08-42.95 227.02-22.4 227.02-42.95 235.33-42.95 235.33 0 226.92 0 222.63-21.5 222.63 0ZM247.97 0.4Q243.32 0.4 241.05-2.88 238.77-6.15 238.77-12.8L238.77-12.8 238.77-31.3Q238.77-37.25 241.42-40.3 244.07-43.35 249.32-43.35L249.32-43.35Q253.57-43.35 255.92-41.65 258.27-39.95 259.17-36.7 260.07-33.45 260.07-28.35L260.07-28.35 251.67-28.35 251.67-32.2Q251.67-33.75 251.25-34.6 250.82-35.45 249.72-35.45L249.72-35.45Q247.27-35.45 247.27-32.25L247.27-32.25 247.27-11.45Q247.27-9.5 247.77-8.5 248.27-7.5 249.52-7.5L249.52-7.5Q250.77-7.5 251.27-8.5 251.77-9.5 251.77-11.45L251.77-11.45 251.77-17.6 249.47-17.6 249.47-25 259.97-25 259.97 0 256.52 0 255.07-3.6Q252.77 0.4 247.97 0.4L247.97 0.4Z" fill="#2ecc40" data-fill-palette-color="secondary"></path></g></svg></g></svg></g></svg></g></svg></g><g><svg viewBox="0 0 221.902117468565 225.02486141156228" height="225.02486141156228" width="221.902117468565"><g><svg xmlns="http://www.w3.org/2000/svg" xmlns:xlink="http://www.w3.org/1999/xlink" version="1.1" x="0" y="0" viewBox="5.611392405413278 5.03 88.77569349357734 90.02500000000003" enable-background="new 0 0 100 100" xml:space="preserve" height="225.02486141156228" width="221.902117468565" class="icon-icon-0" data-fill-palette-color="accent" id="icon-0"></svg></g></svg></g></svg></g><defs></defs><mask id="dbd417df-0832-4cba-8c6f-6fde4b3e3307"><g id="SvgjsG2894"><svg viewBox="0 0 395.5199999999999 128.1707779530532" height="128.1707779530532" width="395.5199999999999"><g><svg viewBox="0 0 694.4003508982444 225.02486141156228" height="128.1707779530532" width="395.5199999999999"><g><rect width="9.009094721243114" height="163.63964234342984" x="245.48613506344225" y="30.69260953406622" fill="white" opacity="1" stroke-width="0" stroke="transparent" fill-opacity="1" class="rect-qz-0" rx="1%" id="SvgjsRect2893" data-palette-color="url(#f9909335-7bee-43e5-82b0-288cabebe0ba)"></rect></g><g><rect width="9.009094721243114" height="163.63964234342984" x="266.28723858212396" y="30.69260953406622" fill="white" opacity="1" stroke-width="0" stroke="transparent" fill-opacity="1" class="rect-qz-1" rx="1%" id="SvgjsRect2892" data-palette-color="url(#f9909335-7bee-43e5-82b0-288cabebe0ba)"></rect></g><g transform="matrix(1,0,0,1,298.88035089824433,31.099673320990163)"><svg viewBox="0 0 395.52 162.82551476958196" height="162.82551476958196" width="395.52"><g id="SvgjsG2891"><svg viewBox="0 0 395.52 162.82551476958196" height="162.82551476958196" width="395.52" id="SvgjsSvg2890"><g><svg viewBox="0 0 395.52 99.90010672358589" height="99.90010672358589" width="395.52"><g transform="matrix(1,0,0,1,0,0)"><svg width="395.52" viewBox="2.25 -34.9 140.54 35.5" height="99.90010672358589" data-palette-color="url(#f9909335-7bee-43e5-82b0-288cabebe0ba)"><g class="wordmark-text-0" data-fill-palette-color="primary" id="SvgjsG2889"><path d="M14.2 0.6L14.2 0.6Q8.55 0.6 5.4-2.63 2.25-5.85 2.25-12.5L2.25-12.5Q2.25-15.65 2.78-18.85 3.3-22.05 4.4-24.93 5.5-27.8 7.33-30.05 9.15-32.3 11.7-33.6 14.25-34.9 17.65-34.9L17.65-34.9Q23.05-34.9 26.25-31.75 29.45-28.6 29.45-22.2L29.45-22.2 29.45-21.55 22.95-21.55 22.95-22.45Q22.95-25.8 21.55-27.6 20.15-29.4 17.65-29.4L17.65-29.4Q15.85-29.4 14.45-28.63 13.05-27.85 12.08-26.53 11.1-25.2 10.45-23.48 9.8-21.75 9.4-19.9 9-18.05 8.85-16.2 8.7-14.35 8.7-12.75L8.7-12.75Q8.7-9.05 10.08-6.98 11.45-4.9 14.35-4.9L14.35-4.9Q16.6-4.9 18.15-5.98 19.7-7.05 20.65-8.83 21.6-10.6 22.05-12.7L22.05-12.7 28.3-12.7Q27.55-9.15 25.78-6.1 24-3.05 21.15-1.23 18.3 0.6 14.2 0.6ZM43.05 0.6L43.05 0.6Q37.75 0.6 34.8-2.63 31.85-5.85 31.85-12.5L31.85-12.5Q31.85-15.5 32.4-18.65 32.95-21.8 34.12-24.7 35.3-27.6 37.17-29.9 39.05-32.2 41.72-33.55 44.4-34.9 47.95-34.9L47.95-34.9Q53.6-34.9 56.92-31.8 60.25-28.7 60.25-22.35L60.25-22.35 53.75-22.35 53.75-22.8Q53.75-26.05 52.25-27.73 50.75-29.4 48.2-29.4L48.2-29.4Q45.8-29.4 44.07-28.3 42.35-27.2 41.22-25.38 40.1-23.55 39.47-21.35 38.85-19.15 38.57-16.9 38.3-14.65 38.3-12.75L38.3-12.75Q38.3-9.05 39.77-6.98 41.25-4.9 44.45-4.9L44.45-4.9Q46.85-4.9 48.5-5.93 50.15-6.95 51.15-8.83 52.15-10.7 52.55-13.15L52.55-13.15 52.95-15.4 55.3-13.15 44.9-13.15 45.7-18.65 59.8-18.65 57.2 0 53.1 0 52.5-3.8Q50.8-1.8 48.45-0.6 46.1 0.6 43.05 0.6ZM76.75 0L70.45 0 72.25-12.95 64.84-34.3 71.34-34.3 76.3-19.25 76.5-19.25 85.45-34.3 91.9-34.3 78.59-12.95 76.75 0ZM101.79 0.6L101.79 0.6Q99.89 0.6 97.89 0.1 95.89-0.4 94.19-1.48 92.49-2.55 91.44-4.3 90.39-6.05 90.39-8.6L90.39-8.6Q90.39-9.45 90.49-10.38 90.59-11.3 90.64-11.65L90.64-11.65 97.24-11.65Q97.19-11.35 97.09-10.78 96.99-10.2 96.99-9.25L96.99-9.25Q96.99-8.4 97.37-7.38 97.74-6.35 98.87-5.63 99.99-4.9 102.19-4.9L102.19-4.9Q103.54-4.9 104.54-5.28 105.54-5.65 106.24-6.28 106.94-6.9 107.29-7.7 107.64-8.5 107.64-9.35L107.64-9.35Q107.64-11.1 106.59-12.25 105.54-13.4 103.89-14.2 102.24-15 100.39-15.83 98.54-16.65 96.89-17.7 95.24-18.75 94.19-20.4 93.14-22.05 93.14-24.55L93.14-24.55Q93.14-27.05 94.27-29.43 95.39-31.8 97.94-33.35 100.49-34.9 104.74-34.9L104.74-34.9Q109.09-34.9 111.39-33.43 113.69-31.95 114.57-29.53 115.44-27.1 115.44-24.2L115.44-24.2 108.99-24.2Q108.99-25.65 108.52-26.83 108.04-28 107.04-28.68 106.04-29.35 104.39-29.35L104.39-29.35Q103.99-29.35 103.24-29.25 102.49-29.15 101.72-28.8 100.94-28.45 100.39-27.73 99.84-27 99.84-25.8L99.84-25.8Q99.84-24.25 100.89-23.28 101.94-22.3 103.59-21.58 105.24-20.85 107.07-20.08 108.89-19.3 110.54-18.15 112.19-17 113.24-15.23 114.29-13.45 114.29-10.65L114.29-10.65Q114.29-7.95 113.34-5.85 112.39-3.75 110.69-2.33 108.99-0.9 106.72-0.15 104.44 0.6 101.79 0.6ZM129.14 0.6L129.14 0.6Q127.24 0.6 125.24 0.1 123.24-0.4 121.54-1.48 119.84-2.55 118.79-4.3 117.74-6.05 117.74-8.6L117.74-8.6Q117.74-9.45 117.84-10.38 117.94-11.3 117.99-11.65L117.99-11.65 124.59-11.65Q124.54-11.35 124.44-10.78 124.34-10.2 124.34-9.25L124.34-9.25Q124.34-8.4 124.72-7.38 125.09-6.35 126.22-5.63 127.34-4.9 129.54-4.9L129.54-4.9Q130.89-4.9 131.89-5.28 132.89-5.65 133.59-6.28 134.29-6.9 134.64-7.7 134.99-8.5 134.99-9.35L134.99-9.35Q134.99-11.1 133.94-12.25 132.89-13.4 131.24-14.2 129.59-15 127.74-15.83 125.89-16.65 124.24-17.7 122.59-18.75 121.54-20.4 120.49-22.05 120.49-24.55L120.49-24.55Q120.49-27.05 121.61-29.43 122.74-31.8 125.29-33.35 127.84-34.9 132.09-34.9L132.09-34.9Q136.44-34.9 138.74-33.43 141.04-31.95 141.91-29.53 142.79-27.1 142.79-24.2L142.79-24.2 136.34-24.2Q136.34-25.65 135.87-26.83 135.39-28 134.39-28.68 133.39-29.35 131.74-29.35L131.74-29.35Q131.34-29.35 130.59-29.25 129.84-29.15 129.06-28.8 128.29-28.45 127.74-27.73 127.19-27 127.19-25.8L127.19-25.8Q127.19-24.25 128.24-23.28 129.29-22.3 130.94-21.58 132.59-20.85 134.41-20.08 136.24-19.3 137.89-18.15 139.54-17 140.59-15.23 141.64-13.45 141.64-10.65L141.64-10.65Q141.64-7.95 140.69-5.85 139.74-3.75 138.04-2.33 136.34-0.9 134.06-0.15 131.79 0.6 129.14 0.6Z" fill="white"></path></g></svg></g></svg></g><g transform="matrix(1,0,0,1,0,123.48412431846316)"><svg viewBox="0 0 375.74399999999997 39.34139045111882" height="39.34139045111882" width="375.74399999999997"><g transform="matrix(1,0,0,1,0,0)"><svg width="375.74399999999997" viewBox="0.25 -43.35 415.71 43.75" height="39.34139045111882" data-palette-color="#2ecc40"><g class="slogan-text-1" data-fill-palette-color="secondary" id="SvgjsG2888"><path d="M15.2 0L7.1 0 7.1-14.15 0.25-42.95 8.75-42.95 11.15-28.4 13.55-42.95 22.05-42.95 15.2-14.15 15.2 0ZM34.45 0.4Q29.25 0.4 26.55-2.78 23.85-5.95 23.85-11.7L23.85-11.7 23.85-32.15Q23.85-37.7 26.55-40.53 29.25-43.35 34.45-43.35L34.45-43.35Q39.65-43.35 42.35-40.53 45.05-37.7 45.05-32.15L45.05-32.15 45.05-11.7Q45.05-5.9 42.35-2.75 39.65 0.4 34.45 0.4L34.45 0.4ZM34.45-7.5Q35.6-7.5 36-8.5 36.4-9.5 36.4-11.3L36.4-11.3 36.4-32.3Q36.4-33.7 36.02-34.58 35.65-35.45 34.5-35.45L34.5-35.45Q32.35-35.45 32.35-32.2L32.35-32.2 32.35-11.25Q32.35-9.4 32.8-8.45 33.25-7.5 34.45-7.5L34.45-7.5ZM57.34 0.4Q52.7 0.4 50.42-2.88 48.14-6.15 48.14-12.8L48.14-12.8 48.14-31.3Q48.14-37.25 50.8-40.3 53.45-43.35 58.7-43.35L58.7-43.35Q62.95-43.35 65.3-41.65 67.64-39.95 68.55-36.7 69.44-33.45 69.44-28.35L69.44-28.35 61.05-28.35 61.05-32.2Q61.05-33.75 60.62-34.6 60.2-35.45 59.09-35.45L59.09-35.45Q56.64-35.45 56.64-32.25L56.64-32.25 56.64-11.45Q56.64-9.5 57.14-8.5 57.64-7.5 58.89-7.5L58.89-7.5Q60.14-7.5 60.64-8.5 61.14-9.5 61.14-11.45L61.14-11.45 61.14-17.6 58.84-17.6 58.84-25 69.34-25 69.34 0 65.89 0 64.44-3.6Q62.14 0.4 57.34 0.4L57.34 0.4ZM79.94 0L71.59 0 75.74-42.95 90.29-42.95 94.39 0 86.24 0 85.64-6.95 80.44-6.95 79.94 0ZM82.69-35.65L81.09-13.8 84.99-13.8 83.09-35.65 82.69-35.65Z" fill="white"></path><path d="M118.19 0.4Q112.34 0.4 109.74-2.5 107.14-5.4 107.14-11.85L107.14-11.85 107.14-16.05 115.59-16.05 115.59-10.7Q115.59-7.5 117.64-7.5L117.64-7.5Q118.79-7.5 119.24-8.18 119.69-8.85 119.69-10.45L119.69-10.45Q119.69-12.55 119.19-13.93 118.69-15.3 117.91-16.23 117.14-17.15 115.14-19.1L115.14-19.1 111.44-22.8Q107.14-27 107.14-32.1L107.14-32.1Q107.14-37.6 109.66-40.48 112.19-43.35 117.04-43.35L117.04-43.35Q122.84-43.35 125.39-40.28 127.94-37.2 127.94-30.65L127.94-30.65 119.19-30.65 119.14-33.6Q119.14-34.45 118.66-34.95 118.19-35.45 117.34-35.45L117.34-35.45Q116.34-35.45 115.84-34.9 115.34-34.35 115.34-33.4L115.34-33.4Q115.34-31.3 117.74-29.05L117.74-29.05 122.74-24.25Q124.49-22.55 125.64-21.03 126.79-19.5 127.49-17.43 128.19-15.35 128.19-12.5L128.19-12.5Q128.19-6.15 125.86-2.88 123.54 0.4 118.19 0.4L118.19 0.4ZM141.04 0.4Q136.34 0.4 133.51-2.55 130.69-5.5 130.69-10.65L130.69-10.65 130.69-30.45Q130.69-36.85 133.24-40.1 135.79-43.35 141.24-43.35L141.24-43.35Q145.99-43.35 148.89-40.75 151.79-38.15 151.79-33.25L151.79-33.25 151.79-25.85 143.24-25.85 143.24-32.2Q143.24-34.05 142.79-34.75 142.34-35.45 141.24-35.45L141.24-35.45Q140.09-35.45 139.66-34.65 139.24-33.85 139.24-32.3L139.24-32.3 139.24-10.75Q139.24-9.05 139.74-8.28 140.24-7.5 141.24-7.5L141.24-7.5Q143.24-7.5 143.24-10.75L143.24-10.75 143.24-18.5 151.89-18.5 151.89-10.4Q151.89 0.4 141.04 0.4L141.04 0.4ZM164.98 0.4Q159.78 0.4 157.08-2.78 154.38-5.95 154.38-11.7L154.38-11.7 154.38-32.15Q154.38-37.7 157.08-40.53 159.78-43.35 164.98-43.35L164.98-43.35Q170.18-43.35 172.88-40.53 175.58-37.7 175.58-32.15L175.58-32.15 175.58-11.7Q175.58-5.9 172.88-2.75 170.18 0.4 164.98 0.4L164.98 0.4ZM164.98-7.5Q166.13-7.5 166.53-8.5 166.93-9.5 166.93-11.3L166.93-11.3 166.93-32.3Q166.93-33.7 166.56-34.58 166.18-35.45 165.03-35.45L165.03-35.45Q162.88-35.45 162.88-32.2L162.88-32.2 162.88-11.25Q162.88-9.4 163.33-8.45 163.78-7.5 164.98-7.5L164.98-7.5ZM179.03 0L179.03-42.95 192.23-42.95Q195.38-42.95 197.11-41.53 198.83-40.1 199.43-37.52 200.03-34.95 200.03-30.95L200.03-30.95Q200.03-27.3 199.08-25.25 198.13-23.2 195.78-22.4L195.78-22.4Q197.73-22 198.61-20.45 199.48-18.9 199.48-16.25L199.48-16.25 199.38 0 190.98 0 190.98-16.8Q190.98-18.6 190.28-19.1 189.58-19.6 187.73-19.6L187.73-19.6 187.73 0 179.03 0ZM187.78-27.05L189.83-27.05Q191.63-27.05 191.63-30.95L191.63-30.95Q191.63-32.65 191.48-33.5 191.33-34.35 190.93-34.68 190.53-35 189.78-35L189.78-35 187.78-35 187.78-27.05ZM210.78 0L202.48 0 202.48-42.95 210.78-42.95 210.78 0ZM222.63 0L214.23 0 214.23-42.95 223.08-42.95 227.02-22.4 227.02-42.95 235.33-42.95 235.33 0 226.92 0 222.63-21.5 222.63 0ZM247.97 0.4Q243.32 0.4 241.05-2.88 238.77-6.15 238.77-12.8L238.77-12.8 238.77-31.3Q238.77-37.25 241.42-40.3 244.07-43.35 249.32-43.35L249.32-43.35Q253.57-43.35 255.92-41.65 258.27-39.95 259.17-36.7 260.07-33.45 260.07-28.35L260.07-28.35 251.67-28.35 251.67-32.2Q251.67-33.75 251.25-34.6 250.82-35.45 249.72-35.45L249.72-35.45Q247.27-35.45 247.27-32.25L247.27-32.25 247.27-11.45Q247.27-9.5 247.77-8.5 248.27-7.5 249.52-7.5L249.52-7.5Q250.77-7.5 251.27-8.5 251.77-9.5 251.77-11.45L251.77-11.45 251.77-17.6 249.47-17.6 249.47-25 259.97-25 259.97 0 256.52 0 255.07-3.6Q252.77 0.4 247.97 0.4L247.97 0.4Z" fill="black"></path><path d="M283.87 0.4Q278.02 0.4 275.42-2.5 272.82-5.4 272.82-11.85L272.82-11.85 272.82-16.05 281.27-16.05 281.27-10.7Q281.27-7.5 283.32-7.5L283.32-7.5Q284.47-7.5 284.92-8.18 285.37-8.85 285.37-10.45L285.37-10.45Q285.37-12.55 284.87-13.93 284.37-15.3 283.59-16.23 282.82-17.15 280.82-19.1L280.82-19.1 277.12-22.8Q272.82-27 272.82-32.1L272.82-32.1Q272.82-37.6 275.34-40.48 277.87-43.35 282.72-43.35L282.72-43.35Q288.52-43.35 291.07-40.28 293.62-37.2 293.62-30.65L293.62-30.65 284.87-30.65 284.82-33.6Q284.82-34.45 284.34-34.95 283.87-35.45 283.02-35.45L283.02-35.45Q282.02-35.45 281.52-34.9 281.02-34.35 281.02-33.4L281.02-33.4Q281.02-31.3 283.42-29.05L283.42-29.05 288.42-24.25Q290.17-22.55 291.32-21.03 292.47-19.5 293.17-17.43 293.87-15.35 293.87-12.5L293.87-12.5Q293.87-6.15 291.54-2.88 289.22 0.4 283.87 0.4L283.87 0.4ZM310.02 0L301.92 0 301.92-14.15 295.07-42.95 303.57-42.95 305.97-28.4 308.37-42.95 316.87-42.95 310.02-14.15 310.02 0ZM329.21 0.4Q323.36 0.4 320.76-2.5 318.16-5.4 318.16-11.85L318.16-11.85 318.16-16.05 326.61-16.05 326.61-10.7Q326.61-7.5 328.66-7.5L328.66-7.5Q329.81-7.5 330.26-8.18 330.71-8.85 330.71-10.45L330.71-10.45Q330.71-12.55 330.21-13.93 329.71-15.3 328.94-16.23 328.16-17.15 326.16-19.1L326.16-19.1 322.46-22.8Q318.16-27 318.16-32.1L318.16-32.1Q318.16-37.6 320.69-40.48 323.21-43.35 328.06-43.35L328.06-43.35Q333.86-43.35 336.41-40.28 338.96-37.2 338.96-30.65L338.96-30.65 330.21-30.65 330.16-33.6Q330.16-34.45 329.69-34.95 329.21-35.45 328.36-35.45L328.36-35.45Q327.36-35.45 326.86-34.9 326.36-34.35 326.36-33.4L326.36-33.4Q326.36-31.3 328.76-29.05L328.76-29.05 333.76-24.25Q335.51-22.55 336.66-21.03 337.81-19.5 338.51-17.43 339.21-15.35 339.21-12.5L339.21-12.5Q339.21-6.15 336.89-2.88 334.56 0.4 329.21 0.4L329.21 0.4ZM354.36 0L345.76 0 345.76-34.7 340.66-34.7 340.66-42.95 359.46-42.95 359.46-34.7 354.36-34.7 354.36 0ZM379.61 0L361.86 0 361.86-42.95 379.06-42.95 379.06-34.65 370.61-34.65 370.61-26.3 378.71-26.3 378.71-18.2 370.61-18.2 370.61-8.35 379.61-8.35 379.61 0ZM390.21 0L382.46 0 382.46-42.95 395.56-42.95 399.16-16.75 402.76-42.95 415.96-42.95 415.96 0 408.11 0 408.11-30.95 403.16 0 395.46 0 390.21-30.95 390.21 0Z" fill="black"></path></g></svg></g></svg></g></svg></g></svg></g><g><svg viewBox="0 0 221.902117468565 225.02486141156228" height="225.02486141156228" width="221.902117468565"><g><svg xmlns="http://www.w3.org/2000/svg" xmlns:xlink="http://www.w3.org/1999/xlink" version="1.1" x="0" y="0" viewBox="5.611392405413278 5.03 88.77569349357734 90.02500000000003" enable-background="new 0 0 100 100" xml:space="preserve" height="225.02486141156228" width="221.902117468565" class="icon-icon-0" data-fill-palette-color="accent" id="SvgjsSvg2887"><g fill="black"><path d="M50.489 5.03c-5.545 0-10.058 4.511-10.058 10.057s4.512 10.059 10.058 10.059c5.547 0 10.058-4.513 10.058-10.059S56.036 5.03 50.489 5.03z" fill="black"></path><path d="M65.216 59.285c0.839 3.503 9.153 5.193 16.49 6.686 2.944 0.6 5.488 1.117 7.024 1.665 0.615 0.22 1.217 0.331 1.793 0.331 2.335 0 3.73-1.803 3.855-3.499 0.104-1.421-0.668-3.213-3.186-3.587-4.896-0.725-12.808-3.803-16.849-6.111-3.688-2.109-4.627-11.376-4.827-14.167-0.033-0.471-0.035-0.954-0.037-1.463-0.011-2.25-0.024-4.801-2.894-7.191-1.487-1.24-3.103-1.679-4.665-2.103-2.076-0.565-4.223-1.147-6.295-3.634-0.097-0.117-0.257-0.163-0.399-0.117-1.506 0.483-3.062 0.729-4.628 0.729-2.354 0-4.023-0.562-4.376-0.692-0.022-0.014-0.044-0.026-0.068-0.038-0.151-0.062-0.325-0.019-0.428 0.107-2.072 2.486-4.219 3.069-6.295 3.633-1.562 0.424-3.177 0.864-4.665 2.103-2.87 2.39-2.883 4.941-2.894 7.192-0.002 0.51-0.004 0.992-0.039 1.463-0.175 2.439-2.068 12.23-5.808 14.367-4.041 2.308-11.953 5.386-16.848 6.111-2.627 0.389-3.685 2.447-3.555 4.195 0.112 1.536 1.206 3.188 3.337 3.188 0.536 0 1.11-0.107 1.705-0.32 1.519-0.542 4.125-1.085 7.143-1.712 7.353-1.529 16.503-3.433 17.347-6.948 0.896-3.727 3.281-9.283 4.155-11.256 0.87 1.929 2.955 7.515 0.76 12.781l-0.46 1.11c-1.72 4.155-2.133 5.034-3.539 5.034-0.596 0-1.37-0.156-2.48-0.396-1.437-0.311-4.317-0.51-7.341-0.51-4.071 0-13.897 0.375-17.204 3.861-0.78 0.823-1.149 1.77-1.093 2.815 0.407 7.73 6.43 9.31 8.022 9.31 0.725 0 2.091 0.944 3.411 1.856 1.593 1.103 3.098 2.143 4.194 2.143 0.209 0 0.4-0.038 0.569-0.113 0.226-0.101 0.49-0.175 0.789-0.221-1.099 0.328-2.168 0.904-2.774 1.909-0.81 1.344-0.618 3.168 0.57 5.421 0.639 1.213 1.602 1.827 2.861 1.827 1.671 0 3.526-1.062 5.164-1.999 1.039-0.594 2.021-1.155 2.524-1.155 0.044 0 0.081 0.006 0.111 0.015 0.889 0.296 4.378 0.4 7.096 0.4 3.865 0 8.759-0.197 10.077-0.754l0.621 0.008c1.67 0.72 8.473 0.757 9.842 0.757 2.641 0 6.04-0.105 6.928-0.401 0.03-0.009 0.068-0.015 0.112-0.015 0.503 0 1.484 0.562 2.524 1.157 1.637 0.936 3.491 1.998 5.163 1.998l0 0c1.259 0 2.222-0.615 2.86-1.828 1.189-2.253 1.38-4.077 0.569-5.421-0.604-1.004-1.674-1.58-2.772-1.909 0.299 0.047 0.562 0.121 0.789 0.221 0.169 0.076 0.36 0.113 0.568 0.113 1.097 0 2.602-1.04 4.192-2.141 1.323-0.914 2.688-1.858 3.412-1.858 1.593 0 7.616-1.579 8.024-9.308 0.055-1.048-0.314-1.994-1.094-2.817C89 66.626 79.175 66.249 75.104 66.249c-3.023 0-5.904 0.2-7.341 0.51-1.112 0.239-1.886 0.396-2.481 0.396-1.406 0-1.819-0.88-3.539-5.037l-0.46-1.108c-2.152-5.166-0.188-10.638 0.71-12.666C62.665 50.404 64.341 55.646 65.216 59.285z" fill="black"></path></g></svg></g></svg></g></svg></g><defs><mask></mask></defs></svg><rect width="395.5199999999999" height="128.1707779530532" fill="black" stroke="none" visibility="hidden"></rect></g></mask><linearGradient x1="0" x2="1" y1="0.548" y2="0.55" id="f9909335-7bee-43e5-82b0-288cabebe0ba"><stop stop-color="#ff6cab" offset="0"></stop><stop stop-color="#7366ff" offset="1"></stop></linearGradient><rect width="395.5199999999999" height="128.1707779530532" fill="url(#f9909335-7bee-43e5-82b0-288cabebe0ba)" mask="url(#dbd417df-0832-4cba-8c6f-6fde4b3e3307)" data-fill-palette-color="primary"></rect><mask id="b1fff876-1988-4e0e-a9e8-0cbac091a651"><g id="SvgjsG2908"><svg viewBox="0 0 395.5199999999999 128.1707779530532" height="128.1707779530532" width="395.5199999999999"><g><svg viewBox="0 0 694.4003508982444 225.02486141156228" height="128.1707779530532" width="395.5199999999999"><g></g><g></g><g transform="matrix(1,0,0,1,298.88035089824433,31.099673320990163)"><svg viewBox="0 0 395.52 162.82551476958196" height="162.82551476958196" width="395.52"><g id="SvgjsG2907"><svg viewBox="0 0 395.52 162.82551476958196" height="162.82551476958196" width="395.52" id="SvgjsSvg2906"><g><svg viewBox="0 0 395.52 99.90010672358589" height="99.90010672358589" width="395.52"><g transform="matrix(1,0,0,1,0,0)"><svg width="395.52" viewBox="2.25 -34.9 140.54 35.5" height="99.90010672358589" data-palette-color="url(#f9909335-7bee-43e5-82b0-288cabebe0ba)"><g class="wordmark-text-0" data-fill-palette-color="primary" id="SvgjsG2905"></g></svg></g></svg></g><g transform="matrix(1,0,0,1,0,123.48412431846316)"><svg viewBox="0 0 375.74399999999997 39.34139045111882" height="39.34139045111882" width="375.74399999999997"><g transform="matrix(1,0,0,1,0,0)"><svg width="375.74399999999997" viewBox="0.25 -43.35 415.71 43.75" height="39.34139045111882" data-palette-color="#2ecc40"><g class="slogan-text-1" data-fill-palette-color="secondary" id="SvgjsG2904"><path d="M118.19 0.4Q112.34 0.4 109.74-2.5 107.14-5.4 107.14-11.85L107.14-11.85 107.14-16.05 115.59-16.05 115.59-10.7Q115.59-7.5 117.64-7.5L117.64-7.5Q118.79-7.5 119.24-8.18 119.69-8.85 119.69-10.45L119.69-10.45Q119.69-12.55 119.19-13.93 118.69-15.3 117.91-16.23 117.14-17.15 115.14-19.1L115.14-19.1 111.44-22.8Q107.14-27 107.14-32.1L107.14-32.1Q107.14-37.6 109.66-40.48 112.19-43.35 117.04-43.35L117.04-43.35Q122.84-43.35 125.39-40.28 127.94-37.2 127.94-30.65L127.94-30.65 119.19-30.65 119.14-33.6Q119.14-34.45 118.66-34.95 118.19-35.45 117.34-35.45L117.34-35.45Q116.34-35.45 115.84-34.9 115.34-34.35 115.34-33.4L115.34-33.4Q115.34-31.3 117.74-29.05L117.74-29.05 122.74-24.25Q124.49-22.55 125.64-21.03 126.79-19.5 127.49-17.43 128.19-15.35 128.19-12.5L128.19-12.5Q128.19-6.15 125.86-2.88 123.54 0.4 118.19 0.4L118.19 0.4ZM141.04 0.4Q136.34 0.4 133.51-2.55 130.69-5.5 130.69-10.65L130.69-10.65 130.69-30.45Q130.69-36.85 133.24-40.1 135.79-43.35 141.24-43.35L141.24-43.35Q145.99-43.35 148.89-40.75 151.79-38.15 151.79-33.25L151.79-33.25 151.79-25.85 143.24-25.85 143.24-32.2Q143.24-34.05 142.79-34.75 142.34-35.45 141.24-35.45L141.24-35.45Q140.09-35.45 139.66-34.65 139.24-33.85 139.24-32.3L139.24-32.3 139.24-10.75Q139.24-9.05 139.74-8.28 140.24-7.5 141.24-7.5L141.24-7.5Q143.24-7.5 143.24-10.75L143.24-10.75 143.24-18.5 151.89-18.5 151.89-10.4Q151.89 0.4 141.04 0.4L141.04 0.4ZM164.98 0.4Q159.78 0.4 157.08-2.78 154.38-5.95 154.38-11.7L154.38-11.7 154.38-32.15Q154.38-37.7 157.08-40.53 159.78-43.35 164.98-43.35L164.98-43.35Q170.18-43.35 172.88-40.53 175.58-37.7 175.58-32.15L175.58-32.15 175.58-11.7Q175.58-5.9 172.88-2.75 170.18 0.4 164.98 0.4L164.98 0.4ZM164.98-7.5Q166.13-7.5 166.53-8.5 166.93-9.5 166.93-11.3L166.93-11.3 166.93-32.3Q166.93-33.7 166.56-34.58 166.18-35.45 165.03-35.45L165.03-35.45Q162.88-35.45 162.88-32.2L162.88-32.2 162.88-11.25Q162.88-9.4 163.33-8.45 163.78-7.5 164.98-7.5L164.98-7.5ZM179.03 0L179.03-42.95 192.23-42.95Q195.38-42.95 197.11-41.53 198.83-40.1 199.43-37.52 200.03-34.95 200.03-30.95L200.03-30.95Q200.03-27.3 199.08-25.25 198.13-23.2 195.78-22.4L195.78-22.4Q197.73-22 198.61-20.45 199.48-18.9 199.48-16.25L199.48-16.25 199.38 0 190.98 0 190.98-16.8Q190.98-18.6 190.28-19.1 189.58-19.6 187.73-19.6L187.73-19.6 187.73 0 179.03 0ZM187.78-27.05L189.83-27.05Q191.63-27.05 191.63-30.95L191.63-30.95Q191.63-32.65 191.48-33.5 191.33-34.35 190.93-34.68 190.53-35 189.78-35L189.78-35 187.78-35 187.78-27.05ZM210.78 0L202.48 0 202.48-42.95 210.78-42.95 210.78 0ZM222.63 0L214.23 0 214.23-42.95 223.08-42.95 227.02-22.4 227.02-42.95 235.33-42.95 235.33 0 226.92 0 222.63-21.5 222.63 0ZM247.97 0.4Q243.32 0.4 241.05-2.88 238.77-6.15 238.77-12.8L238.77-12.8 238.77-31.3Q238.77-37.25 241.42-40.3 244.07-43.35 249.32-43.35L249.32-43.35Q253.57-43.35 255.92-41.65 258.27-39.95 259.17-36.7 260.07-33.45 260.07-28.35L260.07-28.35 251.67-28.35 251.67-32.2Q251.67-33.75 251.25-34.6 250.82-35.45 249.72-35.45L249.72-35.45Q247.27-35.45 247.27-32.25L247.27-32.25 247.27-11.45Q247.27-9.5 247.77-8.5 248.27-7.5 249.52-7.5L249.52-7.5Q250.77-7.5 251.27-8.5 251.77-9.5 251.77-11.45L251.77-11.45 251.77-17.6 249.47-17.6 249.47-25 259.97-25 259.97 0 256.52 0 255.07-3.6Q252.77 0.4 247.97 0.4L247.97 0.4Z" fill="black"></path><path d="M283.87 0.4Q278.02 0.4 275.42-2.5 272.82-5.4 272.82-11.85L272.82-11.85 272.82-16.05 281.27-16.05 281.27-10.7Q281.27-7.5 283.32-7.5L283.32-7.5Q284.47-7.5 284.92-8.18 285.37-8.85 285.37-10.45L285.37-10.45Q285.37-12.55 284.87-13.93 284.37-15.3 283.59-16.23 282.82-17.15 280.82-19.1L280.82-19.1 277.12-22.8Q272.82-27 272.82-32.1L272.82-32.1Q272.82-37.6 275.34-40.48 277.87-43.35 282.72-43.35L282.72-43.35Q288.52-43.35 291.07-40.28 293.62-37.2 293.62-30.65L293.62-30.65 284.87-30.65 284.82-33.6Q284.82-34.45 284.34-34.95 283.87-35.45 283.02-35.45L283.02-35.45Q282.02-35.45 281.52-34.9 281.02-34.35 281.02-33.4L281.02-33.4Q281.02-31.3 283.42-29.05L283.42-29.05 288.42-24.25Q290.17-22.55 291.32-21.03 292.47-19.5 293.17-17.43 293.87-15.35 293.87-12.5L293.87-12.5Q293.87-6.15 291.54-2.88 289.22 0.4 283.87 0.4L283.87 0.4ZM310.02 0L301.92 0 301.92-14.15 295.07-42.95 303.57-42.95 305.97-28.4 308.37-42.95 316.87-42.95 310.02-14.15 310.02 0ZM329.21 0.4Q323.36 0.4 320.76-2.5 318.16-5.4 318.16-11.85L318.16-11.85 318.16-16.05 326.61-16.05 326.61-10.7Q326.61-7.5 328.66-7.5L328.66-7.5Q329.81-7.5 330.26-8.18 330.71-8.85 330.71-10.45L330.71-10.45Q330.71-12.55 330.21-13.93 329.71-15.3 328.94-16.23 328.16-17.15 326.16-19.1L326.16-19.1 322.46-22.8Q318.16-27 318.16-32.1L318.16-32.1Q318.16-37.6 320.69-40.48 323.21-43.35 328.06-43.35L328.06-43.35Q333.86-43.35 336.41-40.28 338.96-37.2 338.96-30.65L338.96-30.65 330.21-30.65 330.16-33.6Q330.16-34.45 329.69-34.95 329.21-35.45 328.36-35.45L328.36-35.45Q327.36-35.45 326.86-34.9 326.36-34.35 326.36-33.4L326.36-33.4Q326.36-31.3 328.76-29.05L328.76-29.05 333.76-24.25Q335.51-22.55 336.66-21.03 337.81-19.5 338.51-17.43 339.21-15.35 339.21-12.5L339.21-12.5Q339.21-6.15 336.89-2.88 334.56 0.4 329.21 0.4L329.21 0.4ZM354.36 0L345.76 0 345.76-34.7 340.66-34.7 340.66-42.95 359.46-42.95 359.46-34.7 354.36-34.7 354.36 0ZM379.61 0L361.86 0 361.86-42.95 379.06-42.95 379.06-34.65 370.61-34.65 370.61-26.3 378.71-26.3 378.71-18.2 370.61-18.2 370.61-8.35 379.61-8.35 379.61 0ZM390.21 0L382.46 0 382.46-42.95 395.56-42.95 399.16-16.75 402.76-42.95 415.96-42.95 415.96 0 408.11 0 408.11-30.95 403.16 0 395.46 0 390.21-30.95 390.21 0Z" fill="white"></path></g></svg></g></svg></g></svg></g></svg></g><g><svg viewBox="0 0 221.902117468565 225.02486141156228" height="225.02486141156228" width="221.902117468565"><g><svg xmlns="http://www.w3.org/2000/svg" xmlns:xlink="http://www.w3.org/1999/xlink" version="1.1" x="0" y="0" viewBox="5.611392405413278 5.03 88.77569349357734 90.02500000000003" enable-background="new 0 0 100 100" xml:space="preserve" height="225.02486141156228" width="221.902117468565" class="icon-icon-0" data-fill-palette-color="accent" id="SvgjsSvg2903"><g fill="white"><path d="M50.489 5.03c-5.545 0-10.058 4.511-10.058 10.057s4.512 10.059 10.058 10.059c5.547 0 10.058-4.513 10.058-10.059S56.036 5.03 50.489 5.03z" fill="white"></path><path d="M65.216 59.285c0.839 3.503 9.153 5.193 16.49 6.686 2.944 0.6 5.488 1.117 7.024 1.665 0.615 0.22 1.217 0.331 1.793 0.331 2.335 0 3.73-1.803 3.855-3.499 0.104-1.421-0.668-3.213-3.186-3.587-4.896-0.725-12.808-3.803-16.849-6.111-3.688-2.109-4.627-11.376-4.827-14.167-0.033-0.471-0.035-0.954-0.037-1.463-0.011-2.25-0.024-4.801-2.894-7.191-1.487-1.24-3.103-1.679-4.665-2.103-2.076-0.565-4.223-1.147-6.295-3.634-0.097-0.117-0.257-0.163-0.399-0.117-1.506 0.483-3.062 0.729-4.628 0.729-2.354 0-4.023-0.562-4.376-0.692-0.022-0.014-0.044-0.026-0.068-0.038-0.151-0.062-0.325-0.019-0.428 0.107-2.072 2.486-4.219 3.069-6.295 3.633-1.562 0.424-3.177 0.864-4.665 2.103-2.87 2.39-2.883 4.941-2.894 7.192-0.002 0.51-0.004 0.992-0.039 1.463-0.175 2.439-2.068 12.23-5.808 14.367-4.041 2.308-11.953 5.386-16.848 6.111-2.627 0.389-3.685 2.447-3.555 4.195 0.112 1.536 1.206 3.188 3.337 3.188 0.536 0 1.11-0.107 1.705-0.32 1.519-0.542 4.125-1.085 7.143-1.712 7.353-1.529 16.503-3.433 17.347-6.948 0.896-3.727 3.281-9.283 4.155-11.256 0.87 1.929 2.955 7.515 0.76 12.781l-0.46 1.11c-1.72 4.155-2.133 5.034-3.539 5.034-0.596 0-1.37-0.156-2.48-0.396-1.437-0.311-4.317-0.51-7.341-0.51-4.071 0-13.897 0.375-17.204 3.861-0.78 0.823-1.149 1.77-1.093 2.815 0.407 7.73 6.43 9.31 8.022 9.31 0.725 0 2.091 0.944 3.411 1.856 1.593 1.103 3.098 2.143 4.194 2.143 0.209 0 0.4-0.038 0.569-0.113 0.226-0.101 0.49-0.175 0.789-0.221-1.099 0.328-2.168 0.904-2.774 1.909-0.81 1.344-0.618 3.168 0.57 5.421 0.639 1.213 1.602 1.827 2.861 1.827 1.671 0 3.526-1.062 5.164-1.999 1.039-0.594 2.021-1.155 2.524-1.155 0.044 0 0.081 0.006 0.111 0.015 0.889 0.296 4.378 0.4 7.096 0.4 3.865 0 8.759-0.197 10.077-0.754l0.621 0.008c1.67 0.72 8.473 0.757 9.842 0.757 2.641 0 6.04-0.105 6.928-0.401 0.03-0.009 0.068-0.015 0.112-0.015 0.503 0 1.484 0.562 2.524 1.157 1.637 0.936 3.491 1.998 5.163 1.998l0 0c1.259 0 2.222-0.615 2.86-1.828 1.189-2.253 1.38-4.077 0.569-5.421-0.604-1.004-1.674-1.58-2.772-1.909 0.299 0.047 0.562 0.121 0.789 0.221 0.169 0.076 0.36 0.113 0.568 0.113 1.097 0 2.602-1.04 4.192-2.141 1.323-0.914 2.688-1.858 3.412-1.858 1.593 0 7.616-1.579 8.024-9.308 0.055-1.048-0.314-1.994-1.094-2.817C89 66.626 79.175 66.249 75.104 66.249c-3.023 0-5.904 0.2-7.341 0.51-1.112 0.239-1.886 0.396-2.481 0.396-1.406 0-1.819-0.88-3.539-5.037l-0.46-1.108c-2.152-5.166-0.188-10.638 0.71-12.666C62.665 50.404 64.341 55.646 65.216 59.285z" fill="white"></path></g></svg></g></svg></g></svg></g><defs><mask></mask></defs><mask><g id="SvgjsG2902"><svg viewBox="0 0 395.5199999999999 128.1707779530532" height="128.1707779530532" width="395.5199999999999"><g><svg viewBox="0 0 694.4003508982444 225.02486141156228" height="128.1707779530532" width="395.5199999999999"><g><rect width="9.009094721243114" height="163.63964234342984" x="245.48613506344225" y="30.69260953406622" fill="black" opacity="1" stroke-width="0" stroke="transparent" fill-opacity="1" class="rect-qz-0" rx="1%" id="SvgjsRect2901" data-palette-color="url(#f9909335-7bee-43e5-82b0-288cabebe0ba)"></rect></g><g><rect width="9.009094721243114" height="163.63964234342984" x="266.28723858212396" y="30.69260953406622" fill="black" opacity="1" stroke-width="0" stroke="transparent" fill-opacity="1" class="rect-qz-1" rx="1%" id="SvgjsRect2900" data-palette-color="url(#f9909335-7bee-43e5-82b0-288cabebe0ba)"></rect></g><g transform="matrix(1,0,0,1,298.88035089824433,31.099673320990163)"><svg viewBox="0 0 395.52 162.82551476958196" height="162.82551476958196" width="395.52"><g id="SvgjsG2899"><svg viewBox="0 0 395.52 162.82551476958196" height="162.82551476958196" width="395.52" id="SvgjsSvg2898"><g><svg viewBox="0 0 395.52 99.90010672358589" height="99.90010672358589" width="395.52"><g transform="matrix(1,0,0,1,0,0)"><svg width="395.52" viewBox="2.25 -34.9 140.54 35.5" height="99.90010672358589" data-palette-color="url(#f9909335-7bee-43e5-82b0-288cabebe0ba)"><g class="wordmark-text-0" data-fill-palette-color="primary" id="SvgjsG2897"><path d="M14.2 0.6L14.2 0.6Q8.55 0.6 5.4-2.63 2.25-5.85 2.25-12.5L2.25-12.5Q2.25-15.65 2.78-18.85 3.3-22.05 4.4-24.93 5.5-27.8 7.33-30.05 9.15-32.3 11.7-33.6 14.25-34.9 17.65-34.9L17.65-34.9Q23.05-34.9 26.25-31.75 29.45-28.6 29.45-22.2L29.45-22.2 29.45-21.55 22.95-21.55 22.95-22.45Q22.95-25.8 21.55-27.6 20.15-29.4 17.65-29.4L17.65-29.4Q15.85-29.4 14.45-28.63 13.05-27.85 12.08-26.53 11.1-25.2 10.45-23.48 9.8-21.75 9.4-19.9 9-18.05 8.85-16.2 8.7-14.35 8.7-12.75L8.7-12.75Q8.7-9.05 10.08-6.98 11.45-4.9 14.35-4.9L14.35-4.9Q16.6-4.9 18.15-5.98 19.7-7.05 20.65-8.83 21.6-10.6 22.05-12.7L22.05-12.7 28.3-12.7Q27.55-9.15 25.78-6.1 24-3.05 21.15-1.23 18.3 0.6 14.2 0.6ZM43.05 0.6L43.05 0.6Q37.75 0.6 34.8-2.63 31.85-5.85 31.85-12.5L31.85-12.5Q31.85-15.5 32.4-18.65 32.95-21.8 34.12-24.7 35.3-27.6 37.17-29.9 39.05-32.2 41.72-33.55 44.4-34.9 47.95-34.9L47.95-34.9Q53.6-34.9 56.92-31.8 60.25-28.7 60.25-22.35L60.25-22.35 53.75-22.35 53.75-22.8Q53.75-26.05 52.25-27.73 50.75-29.4 48.2-29.4L48.2-29.4Q45.8-29.4 44.07-28.3 42.35-27.2 41.22-25.38 40.1-23.55 39.47-21.35 38.85-19.15 38.57-16.9 38.3-14.65 38.3-12.75L38.3-12.75Q38.3-9.05 39.77-6.98 41.25-4.9 44.45-4.9L44.45-4.9Q46.85-4.9 48.5-5.93 50.15-6.95 51.15-8.83 52.15-10.7 52.55-13.15L52.55-13.15 52.95-15.4 55.3-13.15 44.9-13.15 45.7-18.65 59.8-18.65 57.2 0 53.1 0 52.5-3.8Q50.8-1.8 48.45-0.6 46.1 0.6 43.05 0.6ZM76.75 0L70.45 0 72.25-12.95 64.84-34.3 71.34-34.3 76.3-19.25 76.5-19.25 85.45-34.3 91.9-34.3 78.59-12.95 76.75 0ZM101.79 0.6L101.79 0.6Q99.89 0.6 97.89 0.1 95.89-0.4 94.19-1.48 92.49-2.55 91.44-4.3 90.39-6.05 90.39-8.6L90.39-8.6Q90.39-9.45 90.49-10.38 90.59-11.3 90.64-11.65L90.64-11.65 97.24-11.65Q97.19-11.35 97.09-10.78 96.99-10.2 96.99-9.25L96.99-9.25Q96.99-8.4 97.37-7.38 97.74-6.35 98.87-5.63 99.99-4.9 102.19-4.9L102.19-4.9Q103.54-4.9 104.54-5.28 105.54-5.65 106.24-6.28 106.94-6.9 107.29-7.7 107.64-8.5 107.64-9.35L107.64-9.35Q107.64-11.1 106.59-12.25 105.54-13.4 103.89-14.2 102.24-15 100.39-15.83 98.54-16.65 96.89-17.7 95.24-18.75 94.19-20.4 93.14-22.05 93.14-24.55L93.14-24.55Q93.14-27.05 94.27-29.43 95.39-31.8 97.94-33.35 100.49-34.9 104.74-34.9L104.74-34.9Q109.09-34.9 111.39-33.43 113.69-31.95 114.57-29.53 115.44-27.1 115.44-24.2L115.44-24.2 108.99-24.2Q108.99-25.65 108.52-26.83 108.04-28 107.04-28.68 106.04-29.35 104.39-29.35L104.39-29.35Q103.99-29.35 103.24-29.25 102.49-29.15 101.72-28.8 100.94-28.45 100.39-27.73 99.84-27 99.84-25.8L99.84-25.8Q99.84-24.25 100.89-23.28 101.94-22.3 103.59-21.58 105.24-20.85 107.07-20.08 108.89-19.3 110.54-18.15 112.19-17 113.24-15.23 114.29-13.45 114.29-10.65L114.29-10.65Q114.29-7.95 113.34-5.85 112.39-3.75 110.69-2.33 108.99-0.9 106.72-0.15 104.44 0.6 101.79 0.6ZM129.14 0.6L129.14 0.6Q127.24 0.6 125.24 0.1 123.24-0.4 121.54-1.48 119.84-2.55 118.79-4.3 117.74-6.05 117.74-8.6L117.74-8.6Q117.74-9.45 117.84-10.38 117.94-11.3 117.99-11.65L117.99-11.65 124.59-11.65Q124.54-11.35 124.44-10.78 124.34-10.2 124.34-9.25L124.34-9.25Q124.34-8.4 124.72-7.38 125.09-6.35 126.22-5.63 127.34-4.9 129.54-4.9L129.54-4.9Q130.89-4.9 131.89-5.28 132.89-5.65 133.59-6.28 134.29-6.9 134.64-7.7 134.99-8.5 134.99-9.35L134.99-9.35Q134.99-11.1 133.94-12.25 132.89-13.4 131.24-14.2 129.59-15 127.74-15.83 125.89-16.65 124.24-17.7 122.59-18.75 121.54-20.4 120.49-22.05 120.49-24.55L120.49-24.55Q120.49-27.05 121.61-29.43 122.74-31.8 125.29-33.35 127.84-34.9 132.09-34.9L132.09-34.9Q136.44-34.9 138.74-33.43 141.04-31.95 141.91-29.53 142.79-27.1 142.79-24.2L142.79-24.2 136.34-24.2Q136.34-25.65 135.87-26.83 135.39-28 134.39-28.68 133.39-29.35 131.74-29.35L131.74-29.35Q131.34-29.35 130.59-29.25 129.84-29.15 129.06-28.8 128.29-28.45 127.74-27.73 127.19-27 127.19-25.8L127.19-25.8Q127.19-24.25 128.24-23.28 129.29-22.3 130.94-21.58 132.59-20.85 134.41-20.08 136.24-19.3 137.89-18.15 139.54-17 140.59-15.23 141.64-13.45 141.64-10.65L141.64-10.65Q141.64-7.95 140.69-5.85 139.74-3.75 138.04-2.33 136.34-0.9 134.06-0.15 131.79 0.6 129.14 0.6Z" fill="black"></path></g></svg></g></svg></g><g transform="matrix(1,0,0,1,0,123.48412431846316)"><svg viewBox="0 0 375.74399999999997 39.34139045111882" height="39.34139045111882" width="375.74399999999997"><g transform="matrix(1,0,0,1,0,0)"><svg width="375.74399999999997" viewBox="0.25 -43.35 415.71 43.75" height="39.34139045111882" data-palette-color="#2ecc40"><g class="slogan-text-1" data-fill-palette-color="secondary" id="SvgjsG2896"><path d="M15.2 0L7.1 0 7.1-14.15 0.25-42.95 8.75-42.95 11.15-28.4 13.55-42.95 22.05-42.95 15.2-14.15 15.2 0ZM34.45 0.4Q29.25 0.4 26.55-2.78 23.85-5.95 23.85-11.7L23.85-11.7 23.85-32.15Q23.85-37.7 26.55-40.53 29.25-43.35 34.45-43.35L34.45-43.35Q39.65-43.35 42.35-40.53 45.05-37.7 45.05-32.15L45.05-32.15 45.05-11.7Q45.05-5.9 42.35-2.75 39.65 0.4 34.45 0.4L34.45 0.4ZM34.45-7.5Q35.6-7.5 36-8.5 36.4-9.5 36.4-11.3L36.4-11.3 36.4-32.3Q36.4-33.7 36.02-34.58 35.65-35.45 34.5-35.45L34.5-35.45Q32.35-35.45 32.35-32.2L32.35-32.2 32.35-11.25Q32.35-9.4 32.8-8.45 33.25-7.5 34.45-7.5L34.45-7.5ZM57.34 0.4Q52.7 0.4 50.42-2.88 48.14-6.15 48.14-12.8L48.14-12.8 48.14-31.3Q48.14-37.25 50.8-40.3 53.45-43.35 58.7-43.35L58.7-43.35Q62.95-43.35 65.3-41.65 67.64-39.95 68.55-36.7 69.44-33.45 69.44-28.35L69.44-28.35 61.05-28.35 61.05-32.2Q61.05-33.75 60.62-34.6 60.2-35.45 59.09-35.45L59.09-35.45Q56.64-35.45 56.64-32.25L56.64-32.25 56.64-11.45Q56.64-9.5 57.14-8.5 57.64-7.5 58.89-7.5L58.89-7.5Q60.14-7.5 60.64-8.5 61.14-9.5 61.14-11.45L61.14-11.45 61.14-17.6 58.84-17.6 58.84-25 69.34-25 69.34 0 65.89 0 64.44-3.6Q62.14 0.4 57.34 0.4L57.34 0.4ZM79.94 0L71.59 0 75.74-42.95 90.29-42.95 94.39 0 86.24 0 85.64-6.95 80.44-6.95 79.94 0ZM82.69-35.65L81.09-13.8 84.99-13.8 83.09-35.65 82.69-35.65Z" fill="black"></path><path d="M118.19 0.4Q112.34 0.4 109.74-2.5 107.14-5.4 107.14-11.85L107.14-11.85 107.14-16.05 115.59-16.05 115.59-10.7Q115.59-7.5 117.64-7.5L117.64-7.5Q118.79-7.5 119.24-8.18 119.69-8.85 119.69-10.45L119.69-10.45Q119.69-12.55 119.19-13.93 118.69-15.3 117.91-16.23 117.14-17.15 115.14-19.1L115.14-19.1 111.44-22.8Q107.14-27 107.14-32.1L107.14-32.1Q107.14-37.6 109.66-40.48 112.19-43.35 117.04-43.35L117.04-43.35Q122.84-43.35 125.39-40.28 127.94-37.2 127.94-30.65L127.94-30.65 119.19-30.65 119.14-33.6Q119.14-34.45 118.66-34.95 118.19-35.45 117.34-35.45L117.34-35.45Q116.34-35.45 115.84-34.9 115.34-34.35 115.34-33.4L115.34-33.4Q115.34-31.3 117.74-29.05L117.74-29.05 122.74-24.25Q124.49-22.55 125.64-21.03 126.79-19.5 127.49-17.43 128.19-15.35 128.19-12.5L128.19-12.5Q128.19-6.15 125.86-2.88 123.54 0.4 118.19 0.4L118.19 0.4ZM141.04 0.4Q136.34 0.4 133.51-2.55 130.69-5.5 130.69-10.65L130.69-10.65 130.69-30.45Q130.69-36.85 133.24-40.1 135.79-43.35 141.24-43.35L141.24-43.35Q145.99-43.35 148.89-40.75 151.79-38.15 151.79-33.25L151.79-33.25 151.79-25.85 143.24-25.85 143.24-32.2Q143.24-34.05 142.79-34.75 142.34-35.45 141.24-35.45L141.24-35.45Q140.09-35.45 139.66-34.65 139.24-33.85 139.24-32.3L139.24-32.3 139.24-10.75Q139.24-9.05 139.74-8.28 140.24-7.5 141.24-7.5L141.24-7.5Q143.24-7.5 143.24-10.75L143.24-10.75 143.24-18.5 151.89-18.5 151.89-10.4Q151.89 0.4 141.04 0.4L141.04 0.4ZM164.98 0.4Q159.78 0.4 157.08-2.78 154.38-5.95 154.38-11.7L154.38-11.7 154.38-32.15Q154.38-37.7 157.08-40.53 159.78-43.35 164.98-43.35L164.98-43.35Q170.18-43.35 172.88-40.53 175.58-37.7 175.58-32.15L175.58-32.15 175.58-11.7Q175.58-5.9 172.88-2.75 170.18 0.4 164.98 0.4L164.98 0.4ZM164.98-7.5Q166.13-7.5 166.53-8.5 166.93-9.5 166.93-11.3L166.93-11.3 166.93-32.3Q166.93-33.7 166.56-34.58 166.18-35.45 165.03-35.45L165.03-35.45Q162.88-35.45 162.88-32.2L162.88-32.2 162.88-11.25Q162.88-9.4 163.33-8.45 163.78-7.5 164.98-7.5L164.98-7.5ZM179.03 0L179.03-42.95 192.23-42.95Q195.38-42.95 197.11-41.53 198.83-40.1 199.43-37.52 200.03-34.95 200.03-30.95L200.03-30.95Q200.03-27.3 199.08-25.25 198.13-23.2 195.78-22.4L195.78-22.4Q197.73-22 198.61-20.45 199.48-18.9 199.48-16.25L199.48-16.25 199.38 0 190.98 0 190.98-16.8Q190.98-18.6 190.28-19.1 189.58-19.6 187.73-19.6L187.73-19.6 187.73 0 179.03 0ZM187.78-27.05L189.83-27.05Q191.63-27.05 191.63-30.95L191.63-30.95Q191.63-32.65 191.48-33.5 191.33-34.35 190.93-34.68 190.53-35 189.78-35L189.78-35 187.78-35 187.78-27.05ZM210.78 0L202.48 0 202.48-42.95 210.78-42.95 210.78 0ZM222.63 0L214.23 0 214.23-42.95 223.08-42.95 227.02-22.4 227.02-42.95 235.33-42.95 235.33 0 226.92 0 222.63-21.5 222.63 0ZM247.97 0.4Q243.32 0.4 241.05-2.88 238.77-6.15 238.77-12.8L238.77-12.8 238.77-31.3Q238.77-37.25 241.42-40.3 244.07-43.35 249.32-43.35L249.32-43.35Q253.57-43.35 255.92-41.65 258.27-39.95 259.17-36.7 260.07-33.45 260.07-28.35L260.07-28.35 251.67-28.35 251.67-32.2Q251.67-33.75 251.25-34.6 250.82-35.45 249.72-35.45L249.72-35.45Q247.27-35.45 247.27-32.25L247.27-32.25 247.27-11.45Q247.27-9.5 247.77-8.5 248.27-7.5 249.52-7.5L249.52-7.5Q250.77-7.5 251.27-8.5 251.77-9.5 251.77-11.45L251.77-11.45 251.77-17.6 249.47-17.6 249.47-25 259.97-25 259.97 0 256.52 0 255.07-3.6Q252.77 0.4 247.97 0.4L247.97 0.4Z" fill="black"></path><path d="M283.87 0.4Q278.02 0.4 275.42-2.5 272.82-5.4 272.82-11.85L272.82-11.85 272.82-16.05 281.27-16.05 281.27-10.7Q281.27-7.5 283.32-7.5L283.32-7.5Q284.47-7.5 284.92-8.18 285.37-8.85 285.37-10.45L285.37-10.45Q285.37-12.55 284.87-13.93 284.37-15.3 283.59-16.23 282.82-17.15 280.82-19.1L280.82-19.1 277.12-22.8Q272.82-27 272.82-32.1L272.82-32.1Q272.82-37.6 275.34-40.48 277.87-43.35 282.72-43.35L282.72-43.35Q288.52-43.35 291.07-40.28 293.62-37.2 293.62-30.65L293.62-30.65 284.87-30.65 284.82-33.6Q284.82-34.45 284.34-34.95 283.87-35.45 283.02-35.45L283.02-35.45Q282.02-35.45 281.52-34.9 281.02-34.35 281.02-33.4L281.02-33.4Q281.02-31.3 283.42-29.05L283.42-29.05 288.42-24.25Q290.17-22.55 291.32-21.03 292.47-19.5 293.17-17.43 293.87-15.35 293.87-12.5L293.87-12.5Q293.87-6.15 291.54-2.88 289.22 0.4 283.87 0.4L283.87 0.4ZM310.02 0L301.92 0 301.92-14.15 295.07-42.95 303.57-42.95 305.97-28.4 308.37-42.95 316.87-42.95 310.02-14.15 310.02 0ZM329.21 0.4Q323.36 0.4 320.76-2.5 318.16-5.4 318.16-11.85L318.16-11.85 318.16-16.05 326.61-16.05 326.61-10.7Q326.61-7.5 328.66-7.5L328.66-7.5Q329.81-7.5 330.26-8.18 330.71-8.85 330.71-10.45L330.71-10.45Q330.71-12.55 330.21-13.93 329.71-15.3 328.94-16.23 328.16-17.15 326.16-19.1L326.16-19.1 322.46-22.8Q318.16-27 318.16-32.1L318.16-32.1Q318.16-37.6 320.69-40.48 323.21-43.35 328.06-43.35L328.06-43.35Q333.86-43.35 336.41-40.28 338.96-37.2 338.96-30.65L338.96-30.65 330.21-30.65 330.16-33.6Q330.16-34.45 329.69-34.95 329.21-35.45 328.36-35.45L328.36-35.45Q327.36-35.45 326.86-34.9 326.36-34.35 326.36-33.4L326.36-33.4Q326.36-31.3 328.76-29.05L328.76-29.05 333.76-24.25Q335.51-22.55 336.66-21.03 337.81-19.5 338.51-17.43 339.21-15.35 339.21-12.5L339.21-12.5Q339.21-6.15 336.89-2.88 334.56 0.4 329.21 0.4L329.21 0.4ZM354.36 0L345.76 0 345.76-34.7 340.66-34.7 340.66-42.95 359.46-42.95 359.46-34.7 354.36-34.7 354.36 0ZM379.61 0L361.86 0 361.86-42.95 379.06-42.95 379.06-34.65 370.61-34.65 370.61-26.3 378.71-26.3 378.71-18.2 370.61-18.2 370.61-8.35 379.61-8.35 379.61 0ZM390.21 0L382.46 0 382.46-42.95 395.56-42.95 399.16-16.75 402.76-42.95 415.96-42.95 415.96 0 408.11 0 408.11-30.95 403.16 0 395.46 0 390.21-30.95 390.21 0Z" fill="black"></path></g></svg></g></svg></g></svg></g></svg></g><g><svg viewBox="0 0 221.902117468565 225.02486141156228" height="225.02486141156228" width="221.902117468565"><g><svg xmlns="http://www.w3.org/2000/svg" xmlns:xlink="http://www.w3.org/1999/xlink" version="1.1" x="0" y="0" viewBox="5.611392405413278 5.03 88.77569349357734 90.02500000000003" enable-background="new 0 0 100 100" xml:space="preserve" height="225.02486141156228" width="221.902117468565" class="icon-icon-0" data-fill-palette-color="accent" id="SvgjsSvg2895"><g fill="black"><path d="M50.489 5.03c-5.545 0-10.058 4.511-10.058 10.057s4.512 10.059 10.058 10.059c5.547 0 10.058-4.513 10.058-10.059S56.036 5.03 50.489 5.03z" fill="black"></path><path d="M65.216 59.285c0.839 3.503 9.153 5.193 16.49 6.686 2.944 0.6 5.488 1.117 7.024 1.665 0.615 0.22 1.217 0.331 1.793 0.331 2.335 0 3.73-1.803 3.855-3.499 0.104-1.421-0.668-3.213-3.186-3.587-4.896-0.725-12.808-3.803-16.849-6.111-3.688-2.109-4.627-11.376-4.827-14.167-0.033-0.471-0.035-0.954-0.037-1.463-0.011-2.25-0.024-4.801-2.894-7.191-1.487-1.24-3.103-1.679-4.665-2.103-2.076-0.565-4.223-1.147-6.295-3.634-0.097-0.117-0.257-0.163-0.399-0.117-1.506 0.483-3.062 0.729-4.628 0.729-2.354 0-4.023-0.562-4.376-0.692-0.022-0.014-0.044-0.026-0.068-0.038-0.151-0.062-0.325-0.019-0.428 0.107-2.072 2.486-4.219 3.069-6.295 3.633-1.562 0.424-3.177 0.864-4.665 2.103-2.87 2.39-2.883 4.941-2.894 7.192-0.002 0.51-0.004 0.992-0.039 1.463-0.175 2.439-2.068 12.23-5.808 14.367-4.041 2.308-11.953 5.386-16.848 6.111-2.627 0.389-3.685 2.447-3.555 4.195 0.112 1.536 1.206 3.188 3.337 3.188 0.536 0 1.11-0.107 1.705-0.32 1.519-0.542 4.125-1.085 7.143-1.712 7.353-1.529 16.503-3.433 17.347-6.948 0.896-3.727 3.281-9.283 4.155-11.256 0.87 1.929 2.955 7.515 0.76 12.781l-0.46 1.11c-1.72 4.155-2.133 5.034-3.539 5.034-0.596 0-1.37-0.156-2.48-0.396-1.437-0.311-4.317-0.51-7.341-0.51-4.071 0-13.897 0.375-17.204 3.861-0.78 0.823-1.149 1.77-1.093 2.815 0.407 7.73 6.43 9.31 8.022 9.31 0.725 0 2.091 0.944 3.411 1.856 1.593 1.103 3.098 2.143 4.194 2.143 0.209 0 0.4-0.038 0.569-0.113 0.226-0.101 0.49-0.175 0.789-0.221-1.099 0.328-2.168 0.904-2.774 1.909-0.81 1.344-0.618 3.168 0.57 5.421 0.639 1.213 1.602 1.827 2.861 1.827 1.671 0 3.526-1.062 5.164-1.999 1.039-0.594 2.021-1.155 2.524-1.155 0.044 0 0.081 0.006 0.111 0.015 0.889 0.296 4.378 0.4 7.096 0.4 3.865 0 8.759-0.197 10.077-0.754l0.621 0.008c1.67 0.72 8.473 0.757 9.842 0.757 2.641 0 6.04-0.105 6.928-0.401 0.03-0.009 0.068-0.015 0.112-0.015 0.503 0 1.484 0.562 2.524 1.157 1.637 0.936 3.491 1.998 5.163 1.998l0 0c1.259 0 2.222-0.615 2.86-1.828 1.189-2.253 1.38-4.077 0.569-5.421-0.604-1.004-1.674-1.58-2.772-1.909 0.299 0.047 0.562 0.121 0.789 0.221 0.169 0.076 0.36 0.113 0.568 0.113 1.097 0 2.602-1.04 4.192-2.141 1.323-0.914 2.688-1.858 3.412-1.858 1.593 0 7.616-1.579 8.024-9.308 0.055-1.048-0.314-1.994-1.094-2.817C89 66.626 79.175 66.249 75.104 66.249c-3.023 0-5.904 0.2-7.341 0.51-1.112 0.239-1.886 0.396-2.481 0.396-1.406 0-1.819-0.88-3.539-5.037l-0.46-1.108c-2.152-5.166-0.188-10.638 0.71-12.666C62.665 50.404 64.341 55.646 65.216 59.285z" fill="black"></path></g></svg></g></svg></g></svg></g><defs><mask></mask></defs></svg><rect width="395.5199999999999" height="128.1707779530532" fill="black" stroke="none" visibility="hidden"></rect></g></mask></svg><rect width="395.5199999999999" height="128.1707779530532" fill="black" stroke="none" visibility="hidden"></rect></g></mask><linearGradient x1="0" x2="1" y1="0.5" y2="0.5" id="ab08cc5b-7a1d-4676-a46a-e341f41e1605"><stop stop-color="#ffa62e" offset="0"></stop><stop stop-color="#f71b3d" offset="1"></stop></linearGradient><rect width="395.5199999999999" height="128.1707779530532" fill="url(#ab08cc5b-7a1d-4676-a46a-e341f41e1605)" mask="url(#b1fff876-1988-4e0e-a9e8-0cbac091a651)" data-fill-palette-color="accent"></rect></svg><rect width="395.5199999999999" height="128.1707779530532" fill="none" stroke="none" visibility="hidden"></rect></g></svg></g></svg>